#N canvas 639 126 364 244 10;
#X obj 25 27 loadbang;
#X obj 25 81 getdir;
#X msg 25 6 bang;
#X obj 25 189 outlet~;
#X obj 25 52 t b b;
#X obj 25 109 pack s s;
#X obj 94 80 symbol \$1;
#X obj 25 159 oggread~;
#X msg 25 135 open \$1/\$2;
#X obj 176 129 inlet;
#X obj 124 195 outlet;
#X connect 0 0 4 0;
#X connect 1 0 5 0;
#X connect 2 0 0 0;
#X connect 4 0 1 0;
#X connect 4 1 6 0;
#X connect 5 0 8 0;
#X connect 6 0 5 1;
#X connect 7 0 3 0;
#X connect 7 2 10 0;
#X connect 8 0 7 0;
#X connect 9 0 7 0;
