#N canvas 214 76 834 330 10;
#X obj 16 20 inlet~;
#X obj 397 19 inlet;
#X obj 23 289 outlet~;
#X obj 16 157 spigot~;
#X obj 394 287 outlet~;
#X obj 71 20 inlet~;
#X obj 78 289 outlet~;
#X obj 71 157 spigot~;
#X obj 449 287 outlet~;
#X obj 122 20 inlet~;
#X obj 129 289 outlet~;
#X obj 122 157 spigot~;
#X obj 500 287 outlet~;
#X obj 174 19 inlet~;
#X obj 181 288 outlet~;
#X obj 174 156 spigot~;
#X obj 552 286 outlet~;
#X obj 222 19 inlet~;
#X obj 229 288 outlet~;
#X obj 222 156 spigot~;
#X obj 600 286 outlet~;
#X obj 274 18 inlet~;
#X obj 281 287 outlet~;
#X obj 274 155 spigot~;
#X obj 652 285 outlet~;
#X obj 325 19 inlet~;
#X obj 332 288 outlet~;
#X obj 325 156 spigot~;
#X obj 703 286 outlet~;
#X connect 0 0 3 0;
#X connect 1 0 3 1;
#X connect 1 0 7 1;
#X connect 1 0 11 1;
#X connect 1 0 15 1;
#X connect 1 0 19 1;
#X connect 1 0 23 1;
#X connect 1 0 27 1;
#X connect 3 0 2 0;
#X connect 3 1 4 0;
#X connect 5 0 7 0;
#X connect 7 0 6 0;
#X connect 7 1 8 0;
#X connect 9 0 11 0;
#X connect 11 0 10 0;
#X connect 11 1 12 0;
#X connect 13 0 15 0;
#X connect 15 0 14 0;
#X connect 15 1 16 0;
#X connect 17 0 19 0;
#X connect 19 0 18 0;
#X connect 19 1 20 0;
#X connect 21 0 23 0;
#X connect 23 0 22 0;
#X connect 23 1 24 0;
#X connect 25 0 27 0;
#X connect 27 0 26 0;
#X connect 27 1 28 0;
