#N canvas 5 22 558 517 10;
#X declare -path ../../dbm/library/dancing-bone-machine/pd/externals/bin
;
#X declare -path abstractions;
#X declare -path vendors/hoa/HoaLibrary/PureData/builds/;
#X obj 9 57 declare -path ../../dbm/library/dancing-bone-machine/pd/externals/bin
;
#X obj 10 106 dbm-connect;
#X obj 9 15 declare -path abstractions;
#X obj 210 457 dac~;
#X obj 383 205 loadbang;
#X obj 383 242 print HI;
#X obj 200 330 hoa.map~ 3 1;
#X obj 146 393 hoa.bin_sp_order3 -----------;
#X obj 140 258 noise~;
#X obj 270 208 osc~ 0.1;
#X obj 270 296 *~ 2;
#X obj 291 263 hoa.pi 2;
#X obj 291 239 loadbang;
#X msg 223 274 2;
#X msg 448 242 \; pd dsp 1;
#X obj 9 36 declare -path vendors/hoa/HoaLibrary/PureData/builds/;
#X connect 4 0 5 0;
#X connect 4 0 14 0;
#X connect 6 0 7 0;
#X connect 6 1 7 1;
#X connect 6 2 7 2;
#X connect 6 3 7 3;
#X connect 6 4 7 4;
#X connect 6 5 7 5;
#X connect 6 6 7 6;
#X connect 7 0 3 0;
#X connect 7 1 3 1;
#X connect 8 0 6 0;
#X connect 9 0 10 0;
#X connect 10 0 6 2;
#X connect 11 0 10 1;
#X connect 12 0 11 0;
#X connect 12 0 13 0;
#X connect 13 0 6 1;
