#N canvas 602 51 575 650 10;
#X declare -path abstractions;
#X declare -path ../vendors/hoa/HoaLibrary/PureData/builds/;
#X declare -path dbm;
#X obj 9 78 dbm-connect;
#X obj 9 15 declare -path abstractions;
#X obj 210 547 dac~;
#X obj 383 295 loadbang;
#X obj 383 332 print HI;
#X obj 200 420 hoa.map~ 3 1;
#X obj 146 483 hoa.bin_sp_order3 -----------;
#X obj 140 348 noise~;
#X obj 270 298 osc~ 0.1;
#X obj 270 386 *~ 2;
#X obj 291 353 hoa.pi 2;
#X obj 291 329 loadbang;
#X msg 223 364 2;
#X msg 448 332 \; pd dsp 1;
#X obj 9 36 declare -path ../vendors/hoa/HoaLibrary/PureData/builds/
;
#X obj 9 57 declare -path dbm;
#X obj 100 389 file waves/00.ogg;
#X msg 46 239 start;
#X msg 72 289 stop;
#X msg 58 264 resume;
#X obj 132 237 hsl 128 15 0 599 0 0 empty empty empty -2 -8 0 10 -262144
-1 -1 0 0;
#X msg 131 272 seek \$1;
#X obj 46 203 metro 2000;
#X obj 46 173 loadbang;
#X connect 3 0 4 0;
#X connect 3 0 13 0;
#X connect 5 0 6 0;
#X connect 5 1 6 1;
#X connect 5 2 6 2;
#X connect 5 3 6 3;
#X connect 5 4 6 4;
#X connect 5 5 6 5;
#X connect 5 6 6 6;
#X connect 6 0 2 0;
#X connect 6 1 2 1;
#X connect 8 0 9 0;
#X connect 9 0 5 2;
#X connect 10 0 9 1;
#X connect 11 0 10 0;
#X connect 11 0 12 0;
#X connect 12 0 5 1;
#X connect 16 0 5 0;
#X connect 17 0 16 0;
#X connect 18 0 16 0;
#X connect 19 0 16 0;
#X connect 20 0 21 0;
#X connect 21 0 16 0;
#X connect 22 0 17 0;
#X connect 23 0 22 0;
