#N canvas 507 26 558 517 10;
#X declare -path abstractions;
#X declare -path ../vendors/hoa/HoaLibrary/PureData/builds/;
#X declare -path dbm;
#X obj 9 78 dbm-connect;
#X obj 9 15 declare -path abstractions;
#X obj 210 457 dac~;
#X obj 383 205 loadbang;
#X obj 383 242 print HI;
#X obj 200 330 hoa.map~ 3 1;
#X obj 146 393 hoa.bin_sp_order3 -----------;
#X obj 140 258 noise~;
#X obj 270 208 osc~ 0.1;
#X obj 270 296 *~ 2;
#X obj 291 263 hoa.pi 2;
#X obj 291 239 loadbang;
#X msg 223 274 2;
#X msg 448 242 \; pd dsp 1;
#X obj 9 36 declare -path ../vendors/hoa/HoaLibrary/PureData/builds/
;
#X obj 9 57 declare -path dbm;
#X connect 3 0 4 0;
#X connect 3 0 13 0;
#X connect 5 0 6 0;
#X connect 5 1 6 1;
#X connect 5 2 6 2;
#X connect 5 3 6 3;
#X connect 5 4 6 4;
#X connect 5 5 6 5;
#X connect 5 6 6 6;
#X connect 6 0 2 0;
#X connect 6 1 2 1;
#X connect 7 0 5 0;
#X connect 8 0 9 0;
#X connect 9 0 5 2;
#X connect 10 0 9 1;
#X connect 11 0 10 0;
#X connect 11 0 12 0;
#X connect 12 0 5 1;
