#N canvas 602 51 575 650 10;
#X declare -path abstractions;
#X declare -path ../vendors/hoa/HoaLibrary/PureData/builds/;
#X declare -path dbm;
#X obj 9 78 dbm-connect;
#X obj 9 15 declare -path abstractions;
#X obj 189 583 dac~;
#X obj 383 295 loadbang;
#X obj 383 332 print HI;
#X msg 448 332 \; pd dsp 1;
#X obj 9 36 declare -path ../vendors/hoa/HoaLibrary/PureData/builds/
;
#X obj 9 57 declare -path dbm;
#X msg 72 325 start;
#X obj 41 203 loadbang;
#X obj 37 472 file waves/00.ogg;
#X obj 139 433 file waves/01.ogg;
#X obj 179 396 file waves/02.ogg;
#X obj 70 270 metro 5000;
#X obj 123 517 hoa.map~ 3 3;
#X obj 123 552 hoa.bin_sp_order3 -----------;
#X connect 3 0 4 0;
#X connect 3 0 5 0;
#X connect 8 0 10 0;
#X connect 8 0 11 0;
#X connect 8 0 12 0;
#X connect 9 0 13 0;
#X connect 10 0 14 0;
#X connect 11 0 14 1;
#X connect 12 0 14 2;
#X connect 13 0 8 0;
#X connect 14 0 15 0;
#X connect 14 1 15 1;
#X connect 14 2 15 2;
#X connect 14 3 15 3;
#X connect 14 4 15 4;
#X connect 14 5 15 5;
#X connect 14 6 15 6;
#X connect 15 0 2 0;
#X connect 15 1 2 1;
