#N canvas 423 25 852 520 10;
#X declare -path abstractions;
#X declare -path dbm;
#X declare -path ../vendors/hoa/HoaLibrary/PureData/builds;
#X obj 140 248 sound-space-dsp;
#X obj 9 80 dbm-connect;
#X obj 9 26 declare -path abstractions;
#X obj 20 110 receive positions;
#X obj 20 138 list trim;
#X obj 280 138 list trim;
#X obj 280 109 receive reverb;
#X obj 159 140 list trim;
#X obj 159 111 receive play;
#X obj 140 306 dac~;
#X obj 22 245 r playhead;
#X floatatom 23 288 5 0 0 0 - - -;
#X obj 312 192 receive volume;
#X obj 140 281 *~ 0.5;
#X obj 227 280 *~ 0.5;
#X obj 313 240 line;
#X msg 313 216 \$1 300;
#X obj 9 46 declare -path dbm;
#X obj 9 6 declare -path ../vendors/hoa/HoaLibrary/PureData/builds
;
#X obj 197 416 print;
#X connect 0 0 13 0;
#X connect 0 1 14 0;
#X connect 3 0 4 0;
#X connect 4 0 0 0;
#X connect 4 0 19 0;
#X connect 5 0 0 3;
#X connect 6 0 5 0;
#X connect 7 0 0 1;
#X connect 8 0 7 0;
#X connect 10 0 11 0;
#X connect 12 0 16 0;
#X connect 13 0 9 0;
#X connect 14 0 9 1;
#X connect 15 0 13 1;
#X connect 15 0 14 1;
#X connect 16 0 15 0;
