#N canvas 225 22 1047 662 10;
#X declare -path vendors/hoa/hoa;
#X declare -path ../../dbm/library/dancing-bone-machine/pd/externals/bin
;
#X declare -path abstractions;
#X msg 427 149 start;
#X msg 453 199 stop;
#X msg 439 174 resume;
#X text 475 147 play file from beginning;
#X text 495 199 stop (pause) playing;
#X text 485 172 resume playing at current position;
#X msg 465 224 seek 360;
#X obj 436 576 sound-space-dsp;
#X obj 9 6 declare -path vendors/hoa/hoa;
#X obj 9 27 declare -path ../../dbm/library/dancing-bone-machine/pd/externals/bin
;
#X obj 9 61 dbm-connect;
#X obj 10 148 hoa.map @patching_rect [ 10 148 400 400 ] @size [ 400
400 ] @fontname [ helvetica ] @fontweight [ normal ] @fontslant [ regular
] @fontsize [ 11 ] @bgcolor [ 0.9 0.9 0.9 1 ] @bgcolor2 [ 0.75 0.75
0.75 1 ] @bdcolor [ 0 0 0 1 ] @selcolor [ 0.36 0.36 0.37 0.5 ] @outputmode
[ 0 ] @zoom [ 0.7 ] sources_parameters [ source 0 -0.6356 -0.0741999
0 0.2 0.2 0.2 1 s_nosymbol source 1 -0.707314 -0.0419143 0 0.2 0.2
0.2 1 s_nosymbol source 2 -0.577314 -0.211914 0 0.2 0.2 0.2 1 s_nosymbol
source 3 -0.387314 0.288086 0 0.2 0.2 0.2 1 s_nosymbol source 4 -0.247314
-0.0519143 0 0.2 0.2 0.2 1 s_nosymbol source 5 -0.567314 -0.301914
0 0.2 0.2 0.2 1 s_nosymbol source 6 -0.367314 -0.161914 0 0.2 0.2 0.2
1 s_nosymbol source 7 -0.687314 0.138086 0 0.2 0.2 0.2 1 s_nosymbol
source 8 -0.677314 0.188086 0 0.2 0.2 0.2 1 s_nosymbol source 9 -0.217314
0.158086 0 0.2 0.2 0.2 1 s_nosymbol source 10 -0.814644 0.730384 0
0.2 0.2 0.2 1 s_nosymbol source 11 -0.519557 0.630377 0 0.2 0.2 0.2
1 s_nosymbol source 12 -0.604644 0.360384 0 0.2 0.2 0.2 1 s_nosymbol
source 13 -0.65468 0.464897 0 0.2 0.2 0.2 1 s_nosymbol source 14 -0.834644
0.330384 0 0.2 0.2 0.2 1 s_nosymbol source 15 -0.961823 0.486325 0
0.2 0.2 0.2 1 s_nosymbol source 16 -0.994644 0.330384 0 0.2 0.2 0.2
1 s_nosymbol source 17 -0.414644 0.440384 0 0.2 0.2 0.2 1 s_nosymbol
source 18 -0.994644 0.650384 0 0.2 0.2 0.2 1 s_nosymbol source 19 -0.634644
0.790384 0 0.2 0.2 0.2 1 s_nosymbol source 20 0.0110652 -0.806877 0
0.2 0.2 0.2 1 s_nosymbol source 21 -0.217507 -0.942592 0 0.2 0.2 0.2
1 s_nosymbol source 22 0.0824953 -0.678306 0 0.2 0.2 0.2 1 s_nosymbol
source 23 -0.0889348 -0.299735 0 0.2 0.2 0.2 1 s_nosymbol source 24
-0.274801 -0.289435 0 0.2 0.2 0.2 1 s_nosymbol source 25 -0.381793
-0.406877 0 0.2 0.2 0.2 1 s_nosymbol source 26 0.000635263 -0.502276
0 0.2 0.2 0.2 1 s_nosymbol source 27 -0.267105 -0.773259 0 0.2 0.2
0.2 1 s_nosymbol source 28 -0.475121 -0.765196 0 0.2 0.2 0.2 1 s_nosymbol
source 29 -0.460364 -0.535449 0 0.2 0.2 0.2 1 s_nosymbol source 30
-0.206457 0.893133 0 0.2 0.2 0.2 1 s_nosymbol source 31 0.119251 0.749415
0 0.2 0.2 0.2 1 s_nosymbol source 32 -0.471758 0.614687 0 0.2 0.2 0.2
1 s_nosymbol source 33 -0.525845 0.376893 0 0.2 0.2 0.2 1 s_nosymbol
source 34 -0.0438624 0.354293 0 0.2 0.2 0.2 1 s_nosymbol source 35
-0.273862 0.324293 0 0.2 0.2 0.2 1 s_nosymbol source 36 -0.0461524
0.593633 0 0.2 0.2 0.2 1 s_nosymbol source 37 -0.515845 0.876892 0
0.2 0.2 0.2 1 s_nosymbol source 38 -0.0264574 0.873133 0 0.2 0.2 0.2
1 s_nosymbol source 39 -0.366152 0.843629 0 0.2 0.2 0.2 1 s_nosymbol
source 40 -0.79375 -0.711965 0 0.2 0.2 0.2 1 s_nosymbol source 41 -0.65375
-0.0819636 0 0.2 0.2 0.2 1 s_nosymbol source 42 -0.53375 -0.711965
0 0.2 0.2 0.2 1 s_nosymbol source 43 -0.97375 -0.451965 0 0.2 0.2 0.2
1 s_nosymbol source 44 -0.43375 -0.511965 0 0.2 0.2 0.2 1 s_nosymbol
source 45 -0.81375 -0.0719635 0 0.2 0.2 0.2 1 s_nosymbol source 46
-0.44375 -0.301964 0 0.2 0.2 0.2 1 s_nosymbol source 47 -0.95375 -0.241964
0 0.2 0.2 0.2 1 s_nosymbol ] groups_parameters [ group 0 10 0 1 2 3
4 5 6 7 8 9 0 0.2 0.2 0.2 1 s_nosymbol group 1 10 10 11 12 13 14 15
16 17 18 19 0 0.2 0.2 0.2 1 s_nosymbol group 2 10 30 31 32 33 34 35
36 37 38 39 0 0.2 0.2 0.2 1 s_nosymbol group 3 10 20 21 22 23 24 25
26 27 28 29 0 0.2 0.2 0.2 1 s_nosymbol group 4 8 40 41 42 43 44 45
46 47 0 0.2 0.2 0.2 1 s_nosymbol ] slots_parameters [ slot 0 slot 1
slot 2 ];
#X obj 10 88 loadbang;
#X msg 87 115 size 400 400;
#X msg 10 116 zoom 0.7;
#X obj 437 606 output~;
#X obj 195 6 declare -path abstractions;
#X msg 493 303 wet \$1;
#X obj 493 280 nbx 5 14 0 1 0 0 empty empty empty 0 -8 0 10 -262144
-1 -1 0 256;
#X obj 552 305 nbx 5 14 0 1 0 0 empty empty empty 0 -8 0 10 -262144
-1 -1 0 256;
#X msg 552 328 dry \$1;
#X obj 610 330 nbx 5 14 0 1 0 0 empty empty empty 0 -8 0 10 -262144
-1 -1 0 256;
#X msg 610 349 damp \$1;
#X obj 672 353 nbx 5 14 0 1 0 0 empty empty empty 0 -8 0 10 -262144
-1 -1 0 256;
#X msg 672 371 size \$1;
#X text 551 277 Wet / Dry (0 -1);
#X text 669 329 Damping value (0 - 1);
#X text 730 351 Size of the room (0 - 1);
#X obj 821 399 nbx 5 14 0 1 0 0 empty empty empty 0 -8 0 10 -262144
-1 -1 0 256;
#X msg 821 418 spread \$1;
#X obj 740 376 nbx 5 14 0 1 0 0 empty empty empty 0 -8 0 10 -262144
-1 -1 0 256;
#X msg 740 396 fspread \$1;
#X text 799 375 First spread (0 - 1);
#X text 881 397 Late spread (0 - 1);
#X text 490 256 Reverb;
#X connect 0 0 7 1;
#X connect 1 0 7 1;
#X connect 2 0 7 1;
#X connect 6 0 7 1;
#X connect 7 0 15 0;
#X connect 7 1 15 1;
#X connect 11 0 7 0;
#X connect 12 0 14 0;
#X connect 12 0 13 0;
#X connect 13 0 11 0;
#X connect 14 0 11 0;
#X connect 17 0 7 3;
#X connect 18 0 17 0;
#X connect 19 0 20 0;
#X connect 20 0 7 3;
#X connect 21 0 22 0;
#X connect 22 0 7 3;
#X connect 23 0 24 0;
#X connect 24 0 7 3;
#X connect 28 0 29 0;
#X connect 29 0 7 3;
#X connect 30 0 31 0;
#X connect 31 0 7 3;
