#N canvas 669 189 569 424 10;
#X declare -path abstractions;
#X declare -path dbm;
#X declare -path ../vendors/hoa/HoaLibrary/PureData/builds;
#X obj 140 248 sound-space-dsp;
#X obj 9 80 dbm-connect;
#X obj 9 26 declare -path abstractions;
#X obj 20 110 receive positions;
#X obj 20 138 list trim;
#X obj 230 140 list trim;
#X obj 230 111 receive reverb;
#X obj 138 140 list trim;
#X obj 138 108 receive play;
#X obj 310 261 receive volume;
#X obj 140 341 *~ 0.5;
#X obj 184 341 *~ 0.5;
#X obj 311 309 line;
#X msg 311 285 \$1 300;
#X obj 9 46 declare -path dbm;
#X obj 9 6 declare -path ../vendors/hoa/HoaLibrary/PureData/builds
;
#X obj 140 377 dac~ 1 2 3 4;
#X obj 232 341 *~ 0.5;
#X obj 278 341 *~ 0.5;
#X obj 334 113 receive quadraphonic;
#X obj 465 114 receive test;
#X obj 317 72 loadbang;
#X obj 28 253 loadbang;
#X msg 24 321 bang;
#X obj 25 350 send levels;
#X obj 25 288 delay 5000;
#X msg 288 179 1;
#X connect 0 0 10 0;
#X connect 0 1 11 0;
#X connect 0 2 17 0;
#X connect 0 3 18 0;
#X connect 3 0 4 0;
#X connect 4 0 0 0;
#X connect 5 0 0 2;
#X connect 6 0 5 0;
#X connect 7 0 0 1;
#X connect 8 0 7 0;
#X connect 9 0 13 0;
#X connect 10 0 16 0;
#X connect 11 0 16 1;
#X connect 12 0 10 1;
#X connect 12 0 11 1;
#X connect 12 0 17 1;
#X connect 12 0 18 1;
#X connect 13 0 12 0;
#X connect 17 0 16 2;
#X connect 18 0 16 3;
#X connect 19 0 0 3;
#X connect 20 0 0 4;
#X connect 21 0 26 0;
#X connect 22 0 25 0;
#X connect 23 0 24 0;
#X connect 25 0 23 0;
#X connect 26 0 0 3;
