#N canvas 2 261 790 516 10;
#X declare -path vendors/hoa/hoa;
#X declare -path ../../dbm/library/dancing-bone-machine/pd/externals/bin
;
#X declare -path abstractions;
#X obj 200 438 sound-space-dsp;
#X obj 9 6 declare -path vendors/hoa/hoa;
#X obj 9 27 declare -path ../../dbm/library/dancing-bone-machine/pd/externals/bin
;
#X obj 9 61 dbm-connect;
#X obj 195 6 declare -path abstractions;
#X msg 280 243 wet \$1;
#X obj 280 220 nbx 5 14 0 1 0 0 empty empty empty 0 -8 0 10 -262144
-1 -1 0 256;
#X obj 339 245 nbx 5 14 0 1 0 0 empty empty empty 0 -8 0 10 -262144
-1 -1 0 256;
#X msg 339 268 dry \$1;
#X obj 397 270 nbx 5 14 0 1 0 0 empty empty empty 0 -8 0 10 -262144
-1 -1 0 256;
#X msg 397 289 damp \$1;
#X obj 459 293 nbx 5 14 0 1 0 0 empty empty empty 0 -8 0 10 -262144
-1 -1 0 256;
#X msg 459 311 size \$1;
#X text 338 217 Wet / Dry (0 -1);
#X text 456 269 Damping value (0 - 1);
#X text 517 291 Size of the room (0 - 1);
#X obj 608 339 nbx 5 14 0 1 0 0 empty empty empty 0 -8 0 10 -262144
-1 -1 0 256;
#X msg 608 358 spread \$1;
#X obj 527 316 nbx 5 14 0 1 0 0 empty empty empty 0 -8 0 10 -262144
-1 -1 0 256;
#X msg 527 336 fspread \$1;
#X text 586 315 First spread (0 - 1);
#X text 668 337 Late spread (0 - 1);
#X text 277 196 Reverb;
#X obj 20 110 receive positions;
#X obj 20 138 list trim;
#X obj 280 138 list trim;
#X obj 280 109 receive reverb;
#X obj 158 140 list trim;
#X obj 159 111 receive play;
#X obj 200 488 dac~;
#X obj 82 435 r playhead;
#X floatatom 83 478 5 0 0 0 - - -;
#X obj 581 394 receive volume;
#X obj 200 463 *~ 0.5;
#X obj 260 466 *~ 0.5;
#X obj 582 442 line;
#X msg 582 418 \$1 300;
#X obj 195 173 print;
#X connect 0 0 33 0;
#X connect 0 1 34 0;
#X connect 5 0 0 3;
#X connect 6 0 5 0;
#X connect 7 0 8 0;
#X connect 8 0 0 3;
#X connect 9 0 10 0;
#X connect 10 0 0 3;
#X connect 11 0 12 0;
#X connect 12 0 0 3;
#X connect 16 0 17 0;
#X connect 17 0 0 3;
#X connect 18 0 19 0;
#X connect 19 0 0 3;
#X connect 23 0 24 0;
#X connect 24 0 0 0;
#X connect 26 0 25 0;
#X connect 27 0 0 1;
#X connect 27 0 37 0;
#X connect 28 0 27 0;
#X connect 30 0 31 0;
#X connect 32 0 36 0;
#X connect 32 0 37 0;
#X connect 33 0 29 0;
#X connect 34 0 29 1;
#X connect 35 0 33 1;
#X connect 35 0 34 1;
#X connect 36 0 35 0;
