#N canvas 29 76 1233 538 10;
#N canvas 516 104 395 459 files 0;
#X obj -444 -927 outlet~;
#X obj -438 -887 outlet~;
#X obj -432 -846 outlet~;
#X obj -428 -804 outlet~;
#X obj -423 -763 outlet~;
#X obj -417 -723 outlet~;
#X obj -411 -682 outlet~;
#X obj -407 -640 outlet~;
#X obj -401 -598 outlet~;
#X obj -397 -556 outlet~;
#X obj -508 -970 inlet;
#X obj -444 -948 file waves/01.ogg;
#X obj -438 -908 file waves/02.ogg;
#X obj -432 -867 file waves/03.ogg;
#X obj -428 -825 file waves/04.ogg;
#X obj -423 -784 file waves/05.ogg;
#X obj -417 -744 file waves/06.ogg;
#X obj -411 -703 file waves/07.ogg;
#X obj -407 -661 file waves/08.ogg;
#X obj -401 -619 file waves/09.ogg;
#X obj -397 -577 file waves/10.ogg;
#X obj -256 -879 outlet playhead;
#X connect 10 0 11 0;
#X connect 10 0 12 0;
#X connect 10 0 13 0;
#X connect 10 0 14 0;
#X connect 10 0 15 0;
#X connect 10 0 16 0;
#X connect 10 0 17 0;
#X connect 10 0 18 0;
#X connect 10 0 19 0;
#X connect 10 0 20 0;
#X connect 11 0 0 0;
#X connect 11 1 21 0;
#X connect 12 0 1 0;
#X connect 13 0 2 0;
#X connect 14 0 3 0;
#X connect 15 0 4 0;
#X connect 16 0 5 0;
#X connect 17 0 6 0;
#X connect 18 0 7 0;
#X connect 19 0 8 0;
#X connect 20 0 9 0;
#X restore 179 51 pd files 1 9 -------;
#N canvas 166 149 314 430 files 0;
#X obj -444 -927 outlet~;
#X obj -438 -887 outlet~;
#X obj -432 -846 outlet~;
#X obj -428 -804 outlet~;
#X obj -423 -763 outlet~;
#X obj -417 -723 outlet~;
#X obj -411 -682 outlet~;
#X obj -407 -640 outlet~;
#X obj -401 -598 outlet~;
#X obj -397 -556 outlet~;
#X obj -504 -966 inlet;
#X obj -444 -948 file waves/11.ogg;
#X obj -438 -908 file waves/12.ogg;
#X obj -432 -867 file waves/13.ogg;
#X obj -428 -825 file waves/14.ogg;
#X obj -423 -784 file waves/15.ogg;
#X obj -417 -744 file waves/16.ogg;
#X obj -411 -703 file waves/17.ogg;
#X obj -407 -661 file waves/18.ogg;
#X obj -401 -619 file waves/19.ogg;
#X obj -397 -577 file waves/20.ogg;
#X connect 10 0 11 0;
#X connect 10 0 12 0;
#X connect 10 0 13 0;
#X connect 10 0 14 0;
#X connect 10 0 15 0;
#X connect 10 0 16 0;
#X connect 10 0 17 0;
#X connect 10 0 18 0;
#X connect 10 0 19 0;
#X connect 10 0 20 0;
#X connect 11 0 0 0;
#X connect 12 0 1 0;
#X connect 13 0 2 0;
#X connect 14 0 3 0;
#X connect 15 0 4 0;
#X connect 16 0 5 0;
#X connect 17 0 6 0;
#X connect 18 0 7 0;
#X connect 19 0 8 0;
#X connect 20 0 9 0;
#X restore 399 51 pd files 10 19 ---;
#N canvas 166 149 323 453 files 0;
#X obj -444 -927 outlet~;
#X obj -438 -887 outlet~;
#X obj -432 -846 outlet~;
#X obj -428 -804 outlet~;
#X obj -423 -763 outlet~;
#X obj -417 -723 outlet~;
#X obj -411 -682 outlet~;
#X obj -407 -640 outlet~;
#X obj -401 -598 outlet~;
#X obj -397 -556 outlet~;
#X obj -538 -973 inlet;
#X obj -444 -948 file waves/21.ogg;
#X obj -438 -908 file waves/22.ogg;
#X obj -432 -867 file waves/23.ogg;
#X obj -428 -825 file waves/24.ogg;
#X obj -423 -784 file waves/25.ogg;
#X obj -417 -744 file waves/26.ogg;
#X obj -411 -703 file waves/27.ogg;
#X obj -407 -661 file waves/28.ogg;
#X obj -401 -619 file waves/29.ogg;
#X obj -397 -577 file waves/30.ogg;
#X connect 10 0 11 0;
#X connect 10 0 12 0;
#X connect 10 0 13 0;
#X connect 10 0 14 0;
#X connect 10 0 15 0;
#X connect 10 0 16 0;
#X connect 10 0 17 0;
#X connect 10 0 18 0;
#X connect 10 0 19 0;
#X connect 10 0 20 0;
#X connect 11 0 0 0;
#X connect 12 0 1 0;
#X connect 13 0 2 0;
#X connect 14 0 3 0;
#X connect 15 0 4 0;
#X connect 16 0 5 0;
#X connect 17 0 6 0;
#X connect 18 0 7 0;
#X connect 19 0 8 0;
#X connect 20 0 9 0;
#X restore 530 51 pd files 21 30 ---;
#N canvas 166 149 340 470 files 0;
#X obj -444 -927 outlet~;
#X obj -438 -887 outlet~;
#X obj -432 -846 outlet~;
#X obj -428 -804 outlet~;
#X obj -423 -763 outlet~;
#X obj -417 -723 outlet~;
#X obj -411 -682 outlet~;
#X obj -407 -640 outlet~;
#X obj -401 -598 outlet~;
#X obj -397 -556 outlet~;
#X obj -493 -971 inlet;
#X obj -444 -948 file waves/31.ogg;
#X obj -438 -908 file waves/32.ogg;
#X obj -432 -867 file waves/33.ogg;
#X obj -428 -825 file waves/34.ogg;
#X obj -423 -784 file waves/35.ogg;
#X obj -417 -744 file waves/36.ogg;
#X obj -411 -703 file waves/37.ogg;
#X obj -407 -661 file waves/38.ogg;
#X obj -401 -619 file waves/39.ogg;
#X obj -397 -577 file waves/40.ogg;
#X connect 10 0 11 0;
#X connect 10 0 12 0;
#X connect 10 0 13 0;
#X connect 10 0 14 0;
#X connect 10 0 15 0;
#X connect 10 0 16 0;
#X connect 10 0 17 0;
#X connect 10 0 18 0;
#X connect 10 0 19 0;
#X connect 10 0 20 0;
#X connect 11 0 0 0;
#X connect 12 0 1 0;
#X connect 13 0 2 0;
#X connect 14 0 3 0;
#X connect 15 0 4 0;
#X connect 16 0 5 0;
#X connect 17 0 6 0;
#X connect 18 0 7 0;
#X connect 19 0 8 0;
#X connect 20 0 9 0;
#X restore 658 51 pd files 31 40 ---;
#N canvas 190 132 314 430 files 0;
#X obj -444 -927 outlet~;
#X obj -438 -887 outlet~;
#X obj -432 -846 outlet~;
#X obj -428 -804 outlet~;
#X obj -423 -763 outlet~;
#X obj -417 -723 outlet~;
#X obj -411 -682 outlet~;
#X obj -407 -640 outlet~;
#X obj -401 -598 outlet~;
#X obj -490 -991 inlet;
#X obj -444 -948 file waves/41.ogg;
#X obj -438 -908 file waves/42.ogg;
#X obj -432 -867 file waves/43.ogg;
#X obj -428 -825 file waves/44.ogg;
#X obj -423 -784 file waves/45.ogg;
#X obj -417 -744 file waves/46.ogg;
#X obj -411 -703 file waves/47.ogg;
#X obj -407 -661 file waves/48.ogg;
#X obj -401 -619 file waves/49.ogg;
#X connect 9 0 10 0;
#X connect 9 0 11 0;
#X connect 9 0 12 0;
#X connect 9 0 13 0;
#X connect 9 0 14 0;
#X connect 9 0 15 0;
#X connect 9 0 16 0;
#X connect 9 0 17 0;
#X connect 9 0 18 0;
#X connect 10 0 0 0;
#X connect 11 0 1 0;
#X connect 12 0 2 0;
#X connect 13 0 3 0;
#X connect 14 0 4 0;
#X connect 15 0 5 0;
#X connect 16 0 6 0;
#X connect 17 0 7 0;
#X connect 18 0 8 0;
#X restore 790 51 pd files 41 50 ---;
#N canvas 640 380 450 300 mixer 0;
#X obj 11 12 inlet~;
#X obj 11 36 outlet~;
#X obj 19 57 inlet~;
#X obj 19 81 outlet~;
#X obj 28 103 inlet~;
#X obj 28 127 outlet~;
#X obj 34 148 inlet~;
#X obj 34 172 outlet~;
#X obj 42 193 inlet~;
#X obj 42 217 outlet~;
#X obj 64 12 inlet~;
#X obj 64 36 outlet~;
#X obj 72 57 inlet~;
#X obj 72 81 outlet~;
#X obj 81 103 inlet~;
#X obj 81 127 outlet~;
#X obj 87 148 inlet~;
#X obj 87 172 outlet~;
#X obj 95 193 inlet~;
#X obj 95 217 outlet~;
#X obj 126 13 inlet;
#X connect 0 0 1 0;
#X connect 2 0 3 0;
#X connect 4 0 5 0;
#X connect 6 0 7 0;
#X connect 8 0 9 0;
#X connect 10 0 11 0;
#X connect 12 0 13 0;
#X connect 14 0 15 0;
#X connect 16 0 17 0;
#X connect 18 0 19 0;
#X restore 176 151 pd mixer 1 -----------;
#N canvas 640 380 450 300 mixer 0;
#X obj 11 12 inlet~;
#X obj 11 36 outlet~;
#X obj 19 57 inlet~;
#X obj 19 81 outlet~;
#X obj 28 103 inlet~;
#X obj 28 127 outlet~;
#X obj 34 148 inlet~;
#X obj 34 172 outlet~;
#X obj 42 193 inlet~;
#X obj 42 217 outlet~;
#X obj 64 12 inlet~;
#X obj 64 36 outlet~;
#X obj 72 57 inlet~;
#X obj 72 81 outlet~;
#X obj 81 103 inlet~;
#X obj 81 127 outlet~;
#X obj 87 148 inlet~;
#X obj 87 172 outlet~;
#X obj 95 193 inlet~;
#X obj 95 217 outlet~;
#X obj 126 13 inlet;
#X connect 0 0 1 0;
#X connect 2 0 3 0;
#X connect 4 0 5 0;
#X connect 6 0 7 0;
#X connect 8 0 9 0;
#X connect 10 0 11 0;
#X connect 12 0 13 0;
#X connect 14 0 15 0;
#X connect 16 0 17 0;
#X connect 18 0 19 0;
#X restore 399 151 pd mixer 1 ---------;
#N canvas 640 380 450 300 mixer 0;
#X obj 11 12 inlet~;
#X obj 11 36 outlet~;
#X obj 19 57 inlet~;
#X obj 19 81 outlet~;
#X obj 28 103 inlet~;
#X obj 28 127 outlet~;
#X obj 34 148 inlet~;
#X obj 34 172 outlet~;
#X obj 42 193 inlet~;
#X obj 42 217 outlet~;
#X obj 64 12 inlet~;
#X obj 64 36 outlet~;
#X obj 72 57 inlet~;
#X obj 72 81 outlet~;
#X obj 81 103 inlet~;
#X obj 81 127 outlet~;
#X obj 87 148 inlet~;
#X obj 87 172 outlet~;
#X obj 95 193 inlet~;
#X obj 95 217 outlet~;
#X obj 126 13 inlet;
#X connect 0 0 1 0;
#X connect 2 0 3 0;
#X connect 4 0 5 0;
#X connect 6 0 7 0;
#X connect 8 0 9 0;
#X connect 10 0 11 0;
#X connect 12 0 13 0;
#X connect 14 0 15 0;
#X connect 16 0 17 0;
#X connect 18 0 19 0;
#X restore 530 151 pd mixer 2 ---------;
#N canvas 640 380 450 300 mixer 0;
#X obj 11 12 inlet~;
#X obj 11 36 outlet~;
#X obj 19 57 inlet~;
#X obj 19 81 outlet~;
#X obj 28 103 inlet~;
#X obj 28 127 outlet~;
#X obj 34 148 inlet~;
#X obj 34 172 outlet~;
#X obj 42 193 inlet~;
#X obj 42 217 outlet~;
#X obj 64 12 inlet~;
#X obj 64 36 outlet~;
#X obj 72 57 inlet~;
#X obj 72 81 outlet~;
#X obj 81 103 inlet~;
#X obj 81 127 outlet~;
#X obj 87 148 inlet~;
#X obj 87 172 outlet~;
#X obj 95 193 inlet~;
#X obj 95 217 outlet~;
#X obj 126 13 inlet;
#X connect 0 0 1 0;
#X connect 2 0 3 0;
#X connect 4 0 5 0;
#X connect 6 0 7 0;
#X connect 8 0 9 0;
#X connect 10 0 11 0;
#X connect 12 0 13 0;
#X connect 14 0 15 0;
#X connect 16 0 17 0;
#X connect 18 0 19 0;
#X restore 660 151 pd mixer 3 ---------;
#N canvas 640 380 450 300 mixer 0;
#X obj 11 12 inlet~;
#X obj 11 36 outlet~;
#X obj 19 57 inlet~;
#X obj 19 81 outlet~;
#X obj 28 103 inlet~;
#X obj 28 127 outlet~;
#X obj 34 148 inlet~;
#X obj 34 172 outlet~;
#X obj 42 193 inlet~;
#X obj 42 217 outlet~;
#X obj 64 12 inlet~;
#X obj 64 36 outlet~;
#X obj 72 57 inlet~;
#X obj 72 81 outlet~;
#X obj 81 103 inlet~;
#X obj 81 127 outlet~;
#X obj 87 148 inlet~;
#X obj 87 172 outlet~;
#X obj 126 13 inlet;
#X connect 0 0 1 0;
#X connect 2 0 3 0;
#X connect 4 0 5 0;
#X connect 6 0 7 0;
#X connect 8 0 9 0;
#X connect 10 0 11 0;
#X connect 12 0 13 0;
#X connect 14 0 15 0;
#X connect 16 0 17 0;
#X restore 790 151 pd mixer 4 ---------;
#X obj 249 297 hoa.map~ 3 49 ------------------------------------------------------------
;
#X obj 179 13 inlet files;
#X obj 32 64 inlet ambisonics;
#X obj 990 52 inlet mixers;
#X obj 1113 51 inlet reverb;
#N canvas 679 450 450 300 send 0;
#X obj 95 44 inlet;
#X obj 79 130 send playhead;
#X obj 79 93 f;
#X obj -45 20 loadbang;
#X msg 20 21 bang;
#X obj -35 70 metro 1000;
#X connect 0 0 2 1;
#X connect 2 0 1 0;
#X connect 3 0 5 0;
#X connect 4 0 5 0;
#X connect 5 0 2 0;
#X restore 296 83 pd send playhead;
#X obj 249 362 hoa.freeverb~ 3;
#X obj 249 443 hoa.bin_sp_order3 -----------;
#X obj 249 408 hoa.optim~ 3 @mode [ maxRe ];
#X obj 249 472 outlet~;
#X obj 420 474 outlet~;
#X connect 0 0 5 0;
#X connect 0 1 5 1;
#X connect 0 2 5 2;
#X connect 0 3 5 3;
#X connect 0 4 5 4;
#X connect 0 5 5 5;
#X connect 0 6 5 6;
#X connect 0 7 5 7;
#X connect 0 8 5 8;
#X connect 0 9 5 9;
#X connect 0 10 15 0;
#X connect 1 0 6 0;
#X connect 1 1 6 1;
#X connect 1 2 6 2;
#X connect 1 3 6 3;
#X connect 1 4 6 4;
#X connect 1 5 6 5;
#X connect 1 6 6 6;
#X connect 1 7 6 7;
#X connect 1 8 6 8;
#X connect 1 9 6 9;
#X connect 2 0 7 0;
#X connect 2 1 7 1;
#X connect 2 2 7 2;
#X connect 2 3 7 3;
#X connect 2 4 7 4;
#X connect 2 5 7 5;
#X connect 2 6 7 6;
#X connect 2 7 7 7;
#X connect 2 8 7 8;
#X connect 2 9 7 9;
#X connect 3 0 8 0;
#X connect 3 1 8 1;
#X connect 3 2 8 2;
#X connect 3 3 8 3;
#X connect 3 4 8 4;
#X connect 3 5 8 5;
#X connect 3 6 8 6;
#X connect 3 7 8 7;
#X connect 3 8 8 8;
#X connect 3 9 8 9;
#X connect 4 0 9 0;
#X connect 4 1 9 1;
#X connect 4 2 9 2;
#X connect 4 3 9 3;
#X connect 4 4 9 4;
#X connect 4 5 9 5;
#X connect 4 6 9 6;
#X connect 4 7 9 7;
#X connect 4 8 9 8;
#X connect 5 0 10 0;
#X connect 5 1 10 1;
#X connect 5 2 10 2;
#X connect 5 3 10 3;
#X connect 5 4 10 4;
#X connect 5 5 10 5;
#X connect 5 6 10 6;
#X connect 5 7 10 7;
#X connect 5 8 10 8;
#X connect 5 9 10 9;
#X connect 6 0 10 10;
#X connect 6 1 10 11;
#X connect 6 2 10 12;
#X connect 6 3 10 13;
#X connect 6 4 10 14;
#X connect 6 5 10 15;
#X connect 6 6 10 16;
#X connect 6 7 10 17;
#X connect 6 8 10 18;
#X connect 6 9 10 19;
#X connect 7 0 10 20;
#X connect 7 1 10 21;
#X connect 7 2 10 22;
#X connect 7 3 10 23;
#X connect 7 4 10 24;
#X connect 7 5 10 25;
#X connect 7 6 10 26;
#X connect 7 7 10 27;
#X connect 7 8 10 28;
#X connect 7 9 10 29;
#X connect 8 0 10 30;
#X connect 8 1 10 31;
#X connect 8 2 10 32;
#X connect 8 3 10 33;
#X connect 8 4 10 34;
#X connect 8 5 10 35;
#X connect 8 6 10 36;
#X connect 8 7 10 37;
#X connect 8 8 10 38;
#X connect 8 9 10 39;
#X connect 9 0 10 40;
#X connect 9 1 10 41;
#X connect 9 2 10 42;
#X connect 9 3 10 43;
#X connect 9 4 10 44;
#X connect 9 5 10 45;
#X connect 9 6 10 46;
#X connect 9 7 10 47;
#X connect 9 8 10 48;
#X connect 10 0 16 0;
#X connect 10 1 16 1;
#X connect 10 2 16 2;
#X connect 10 3 16 3;
#X connect 10 4 16 4;
#X connect 10 5 16 5;
#X connect 10 6 16 6;
#X connect 11 0 0 0;
#X connect 11 0 1 0;
#X connect 11 0 2 0;
#X connect 11 0 3 0;
#X connect 11 0 4 0;
#X connect 12 0 10 0;
#X connect 13 0 5 10;
#X connect 13 0 6 10;
#X connect 13 0 7 10;
#X connect 13 0 8 10;
#X connect 13 0 9 9;
#X connect 14 0 16 0;
#X connect 16 0 18 0;
#X connect 16 1 18 1;
#X connect 16 2 18 2;
#X connect 16 3 18 3;
#X connect 16 4 18 4;
#X connect 16 5 18 5;
#X connect 16 6 18 6;
#X connect 17 0 19 0;
#X connect 17 1 20 0;
#X connect 18 0 17 0;
#X connect 18 1 17 1;
#X connect 18 2 17 2;
#X connect 18 3 17 3;
#X connect 18 4 17 4;
#X connect 18 5 17 5;
#X connect 18 6 17 6;
