#N canvas 0 90 1216 624 10;
#N canvas 166 149 323 453 files 0;
#X obj -444 -927 outlet~;
#X obj -438 -887 outlet~;
#X obj -432 -846 outlet~;
#X obj -428 -804 outlet~;
#X obj -423 -763 outlet~;
#X obj -417 -723 outlet~;
#X obj -411 -682 outlet~;
#X obj -407 -640 outlet~;
#X obj -401 -598 outlet~;
#X obj -397 -556 outlet~;
#X obj -538 -973 inlet;
#X obj -444 -948 file waves/21.ogg;
#X obj -438 -908 file waves/22.ogg;
#X obj -432 -867 file waves/23.ogg;
#X obj -428 -825 file waves/24.ogg;
#X obj -423 -784 file waves/25.ogg;
#X obj -417 -744 file waves/26.ogg;
#X obj -411 -703 file waves/27.ogg;
#X obj -407 -661 file waves/28.ogg;
#X obj -401 -619 file waves/29.ogg;
#X obj -397 -577 file waves/30.ogg;
#X connect 10 0 11 0;
#X connect 10 0 12 0;
#X connect 10 0 13 0;
#X connect 10 0 14 0;
#X connect 10 0 15 0;
#X connect 10 0 16 0;
#X connect 10 0 17 0;
#X connect 10 0 18 0;
#X connect 10 0 19 0;
#X connect 10 0 20 0;
#X connect 11 0 0 0;
#X connect 12 0 1 0;
#X connect 13 0 2 0;
#X connect 14 0 3 0;
#X connect 15 0 4 0;
#X connect 16 0 5 0;
#X connect 17 0 6 0;
#X connect 18 0 7 0;
#X connect 19 0 8 0;
#X connect 20 0 9 0;
#X restore 480 51 pd files 21 30 ---;
#N canvas 166 149 340 470 files 0;
#X obj -444 -927 outlet~;
#X obj -438 -887 outlet~;
#X obj -432 -846 outlet~;
#X obj -428 -804 outlet~;
#X obj -423 -763 outlet~;
#X obj -417 -723 outlet~;
#X obj -411 -682 outlet~;
#X obj -407 -640 outlet~;
#X obj -401 -598 outlet~;
#X obj -397 -556 outlet~;
#X obj -493 -971 inlet;
#X obj -444 -948 file waves/31.ogg;
#X obj -438 -908 file waves/32.ogg;
#X obj -432 -867 file waves/33.ogg;
#X obj -428 -825 file waves/34.ogg;
#X obj -423 -784 file waves/35.ogg;
#X obj -417 -744 file waves/36.ogg;
#X obj -411 -703 file waves/37.ogg;
#X obj -407 -661 file waves/38.ogg;
#X obj -401 -619 file waves/39.ogg;
#X obj -397 -577 file waves/40.ogg;
#X connect 10 0 11 0;
#X connect 10 0 12 0;
#X connect 10 0 13 0;
#X connect 10 0 14 0;
#X connect 10 0 15 0;
#X connect 10 0 16 0;
#X connect 10 0 17 0;
#X connect 10 0 18 0;
#X connect 10 0 19 0;
#X connect 10 0 20 0;
#X connect 11 0 0 0;
#X connect 12 0 1 0;
#X connect 13 0 2 0;
#X connect 14 0 3 0;
#X connect 15 0 4 0;
#X connect 16 0 5 0;
#X connect 17 0 6 0;
#X connect 18 0 7 0;
#X connect 19 0 8 0;
#X connect 20 0 9 0;
#X restore 626 51 pd files 31 40 ---;
#N canvas 190 132 314 430 files 0;
#X obj -444 -927 outlet~;
#X obj -438 -887 outlet~;
#X obj -432 -846 outlet~;
#X obj -428 -804 outlet~;
#X obj -423 -763 outlet~;
#X obj -417 -723 outlet~;
#X obj -411 -682 outlet~;
#X obj -407 -640 outlet~;
#X obj -401 -598 outlet~;
#X obj -490 -991 inlet;
#X obj -444 -948 file waves/41.ogg;
#X obj -438 -908 file waves/42.ogg;
#X obj -432 -867 file waves/43.ogg;
#X obj -428 -825 file waves/44.ogg;
#X obj -423 -784 file waves/45.ogg;
#X obj -417 -744 file waves/46.ogg;
#X obj -411 -703 file waves/47.ogg;
#X obj -407 -661 file waves/48.ogg;
#X obj -401 -619 file waves/49.ogg;
#X connect 9 0 10 0;
#X connect 9 0 11 0;
#X connect 9 0 12 0;
#X connect 9 0 13 0;
#X connect 9 0 14 0;
#X connect 9 0 15 0;
#X connect 9 0 16 0;
#X connect 9 0 17 0;
#X connect 9 0 18 0;
#X connect 10 0 0 0;
#X connect 11 0 1 0;
#X connect 12 0 2 0;
#X connect 13 0 3 0;
#X connect 14 0 4 0;
#X connect 15 0 5 0;
#X connect 16 0 6 0;
#X connect 17 0 7 0;
#X connect 18 0 8 0;
#X restore 777 51 pd files 41 50 ---;
#X obj 179 13 inlet files;
#X obj 16 21 inlet ambisonics;
#X obj 927 14 inlet reverb;
#N canvas 679 450 450 300 send 0;
#X obj 95 44 inlet;
#X obj 79 130 send playhead;
#X obj 79 93 f;
#X obj -45 20 loadbang;
#X msg 20 21 bang;
#X obj -35 70 metro 1000;
#X connect 0 0 2 1;
#X connect 2 0 1 0;
#X connect 3 0 5 0;
#X connect 4 0 5 0;
#X connect 5 0 2 0;
#X restore 81 98 pd send playhead;
#X obj 249 362 hoa.freeverb~ 3;
#X obj 249 472 outlet~;
#X obj 420 474 outlet~;
#N canvas 69 22 570 334 quad 0;
#X obj 58 16 inlet~;
#X obj 11 15 inlet~;
#X obj 107 16 inlet~;
#X obj 201 18 inlet~;
#X obj 154 17 inlet~;
#X obj 250 18 inlet~;
#X obj 294 19 inlet~;
#X obj 26 246 outlet~;
#X obj 79 246 outlet~;
#X obj 57 90 hoa.optim~ 3 @mode [ inPhase ] -----;
#X obj 57 122 hoa.decoder~ 3 irregular 4 @restitution [ panning ] @angles
[ 45 135 225 315];
#X obj 132 247 outlet~;
#X obj 185 247 outlet~;
#X obj 400 43 switch~;
#X obj 400 14 inlet;
#X connect 0 0 9 1;
#X connect 1 0 9 0;
#X connect 2 0 9 2;
#X connect 3 0 9 4;
#X connect 4 0 9 3;
#X connect 5 0 9 5;
#X connect 6 0 9 6;
#X connect 9 0 10 0;
#X connect 9 1 10 1;
#X connect 9 2 10 2;
#X connect 9 3 10 3;
#X connect 9 4 10 4;
#X connect 9 5 10 5;
#X connect 9 6 10 6;
#X connect 10 0 8 0;
#X connect 10 1 7 0;
#X connect 10 2 11 0;
#X connect 10 3 12 0;
#X connect 14 0 13 0;
#X restore 458 423 pd quad ----------------;
#X obj 1022 14 inlet quadraphonic;
#X obj 621 367 == 0;
#X obj 559 477 outlet~;
#X obj 730 479 outlet~;
#N canvas 659 281 570 334 stereo 0;
#X obj 58 16 inlet~;
#X obj 11 15 inlet~;
#X obj 107 16 inlet~;
#X obj 201 18 inlet~;
#X obj 154 17 inlet~;
#X obj 250 18 inlet~;
#X obj 294 19 inlet~;
#X obj 226 209 outlet~;
#X obj 53 233 outlet~;
#X obj 400 43 switch~;
#X obj 400 14 inlet;
#X obj 57 90 hoa.optim~ 3 @mode [ maxRe ];
#X obj 57 122 hoa.bin_sp_order3 -----------;
#X connect 0 0 11 1;
#X connect 1 0 11 0;
#X connect 2 0 11 2;
#X connect 3 0 11 4;
#X connect 4 0 11 3;
#X connect 5 0 11 5;
#X connect 6 0 11 6;
#X connect 10 0 9 0;
#X connect 11 0 12 0;
#X connect 11 1 12 1;
#X connect 11 2 12 2;
#X connect 11 3 12 3;
#X connect 11 4 12 4;
#X connect 11 5 12 5;
#X connect 11 6 12 6;
#X connect 12 0 8 0;
#X connect 12 1 7 0;
#X restore 255 423 pd stereo ----------------;
#X obj 1144 15 inlet test;
#X obj 866 294 t b f;
#X text 1736 259 .;
#X text 1213 16 <- 0 \, 1 \, 2 or 3;
#X obj 893 390 demultiplex~ 0 1 2 3;
#X msg 767 331 start;
#X obj 766 354 file waves/test.ogg;
#X obj 48 253 file waves/test.ogg;
#X msg 97 224 start;
#X msg 47 203 stop;
#N canvas 516 104 395 459 files 0;
#X obj -444 -927 outlet~;
#X obj -438 -887 outlet~;
#X obj -432 -846 outlet~;
#X obj -428 -804 outlet~;
#X obj -423 -763 outlet~;
#X obj -417 -723 outlet~;
#X obj -411 -682 outlet~;
#X obj -407 -640 outlet~;
#X obj -401 -598 outlet~;
#X obj -397 -556 outlet~;
#X obj -508 -970 inlet;
#X obj -444 -948 file waves/01.ogg;
#X obj -438 -908 file waves/02.ogg;
#X obj -432 -867 file waves/03.ogg;
#X obj -428 -825 file waves/04.ogg;
#X obj -423 -784 file waves/05.ogg;
#X obj -417 -744 file waves/06.ogg;
#X obj -411 -703 file waves/07.ogg;
#X obj -407 -661 file waves/08.ogg;
#X obj -401 -619 file waves/09.ogg;
#X obj -397 -577 file waves/10.ogg;
#X obj -616 -919 outlet playhead;
#X connect 10 0 11 0;
#X connect 10 0 12 0;
#X connect 10 0 13 0;
#X connect 10 0 14 0;
#X connect 10 0 15 0;
#X connect 10 0 16 0;
#X connect 10 0 17 0;
#X connect 10 0 18 0;
#X connect 10 0 19 0;
#X connect 10 0 20 0;
#X connect 11 0 0 0;
#X connect 11 1 21 0;
#X connect 12 0 1 0;
#X connect 13 0 2 0;
#X connect 14 0 3 0;
#X connect 15 0 4 0;
#X connect 16 0 5 0;
#X connect 17 0 6 0;
#X connect 18 0 7 0;
#X connect 19 0 8 0;
#X connect 20 0 9 0;
#X restore 180 51 pd files 1 10 -------;
#N canvas 166 149 314 430 files 0;
#X obj -444 -927 outlet~;
#X obj -438 -887 outlet~;
#X obj -432 -846 outlet~;
#X obj -428 -804 outlet~;
#X obj -423 -763 outlet~;
#X obj -417 -723 outlet~;
#X obj -411 -682 outlet~;
#X obj -407 -640 outlet~;
#X obj -401 -598 outlet~;
#X obj -397 -556 outlet~;
#X obj -504 -966 inlet;
#X obj -444 -948 file waves/11.ogg;
#X obj -438 -908 file waves/12.ogg;
#X obj -432 -867 file waves/13.ogg;
#X obj -428 -825 file waves/14.ogg;
#X obj -423 -784 file waves/15.ogg;
#X obj -417 -744 file waves/16.ogg;
#X obj -411 -703 file waves/17.ogg;
#X obj -407 -661 file waves/18.ogg;
#X obj -401 -619 file waves/19.ogg;
#X obj -397 -577 file waves/20.ogg;
#X connect 10 0 11 0;
#X connect 10 0 12 0;
#X connect 10 0 13 0;
#X connect 10 0 14 0;
#X connect 10 0 15 0;
#X connect 10 0 16 0;
#X connect 10 0 17 0;
#X connect 10 0 18 0;
#X connect 10 0 19 0;
#X connect 10 0 20 0;
#X connect 11 0 0 0;
#X connect 12 0 1 0;
#X connect 13 0 2 0;
#X connect 14 0 3 0;
#X connect 15 0 4 0;
#X connect 16 0 5 0;
#X connect 17 0 6 0;
#X connect 18 0 7 0;
#X connect 19 0 8 0;
#X connect 20 0 9 0;
#X restore 342 50 pd files 11 20 ---;
#X obj 621 317 loadbang;
#X msg 621 342 0;
#X obj 249 299 hoa.map~ 3 49 ------------------------------------------------------------
;
#N canvas 83 101 1123 513 levels 0;
#X obj 14 -58 inlet~;
#X obj 14 -32 outlet~;
#X obj 921 201 pack f f f f f f f f f f f;
#X msg 863 125 1;
#X obj 863 103 loadbang;
#X obj 20 -11 env~ 1024 4410;
#X obj 921 226 route 0;
#X obj 103 -59 inlet~;
#X obj 103 -33 outlet~;
#X obj 114 -12 env~ 1024 4410;
#X obj 200 -59 inlet~;
#X obj 200 -33 outlet~;
#X obj 206 -12 env~ 1024 4410;
#X obj 289 -60 inlet~;
#X obj 289 -34 outlet~;
#X obj 300 -13 env~ 1024 4410;
#X obj 386 -59 inlet~;
#X obj 386 -33 outlet~;
#X obj 392 -12 env~ 1024 4410;
#X obj 475 -60 inlet~;
#X obj 475 -34 outlet~;
#X obj 486 -13 env~ 1024 4410;
#X obj 572 -60 inlet~;
#X obj 572 -34 outlet~;
#X obj 578 -13 env~ 1024 4410;
#X obj 661 -61 inlet~;
#X obj 661 -35 outlet~;
#X obj 672 -14 env~ 1024 4410;
#X obj 758 -61 inlet~;
#X obj 758 -35 outlet~;
#X obj 764 -14 env~ 1024 4410;
#X obj 847 -62 inlet~;
#X obj 847 -36 outlet~;
#X obj 858 -15 env~ 1024 4410;
#X obj 921 249 s \$0-levels-0;
#X obj 863 150 metro 100;
#X connect 0 0 1 0;
#X connect 0 0 5 0;
#X connect 2 0 6 0;
#X connect 3 0 35 0;
#X connect 4 0 3 0;
#X connect 5 0 2 1;
#X connect 6 0 34 0;
#X connect 7 0 8 0;
#X connect 7 0 9 0;
#X connect 9 0 2 2;
#X connect 10 0 11 0;
#X connect 10 0 12 0;
#X connect 12 0 2 3;
#X connect 13 0 14 0;
#X connect 13 0 15 0;
#X connect 15 0 2 4;
#X connect 16 0 17 0;
#X connect 16 0 18 0;
#X connect 18 0 2 5;
#X connect 19 0 20 0;
#X connect 19 0 21 0;
#X connect 21 0 2 6;
#X connect 22 0 23 0;
#X connect 22 0 24 0;
#X connect 24 0 2 7;
#X connect 25 0 26 0;
#X connect 25 0 27 0;
#X connect 27 0 2 8;
#X connect 28 0 29 0;
#X connect 28 0 30 0;
#X connect 30 0 2 9;
#X connect 31 0 32 0;
#X connect 31 0 33 0;
#X connect 33 0 2 10;
#X connect 35 0 2 0;
#X restore 177 153 pd levels 0 -----------;
#N canvas 296 172 450 300 send-levels 0;
#X obj 282 69 list append;
#X obj 286 115 list append;
#X obj 285 167 list append;
#X obj 219 201 list append;
#X obj 122 158 r \$0-levels-0;
#X obj 156 123 r \$0-levels-1;
#X obj 192 87 r \$0-levels-2;
#X obj 251 36 r \$0-levels-3;
#X obj 346 20 r \$0-levels-4;
#X obj 43 235 list;
#X obj 45 272 send levels;
#X obj 41 157 loadbang;
#X obj 37 204 metro 200;
#X msg 38 184 1;
#X connect 0 0 1 1;
#X connect 1 0 2 1;
#X connect 2 0 3 1;
#X connect 3 0 9 1;
#X connect 4 0 3 0;
#X connect 5 0 2 0;
#X connect 6 0 1 0;
#X connect 7 0 0 0;
#X connect 8 0 0 1;
#X connect 9 0 10 0;
#X connect 11 0 13 0;
#X connect 12 0 9 0;
#X connect 13 0 12 0;
#X restore 1056 156 pd send-levels;
#X text 1146 153 <-- !!!!;
#N canvas 83 101 1123 513 levels 0;
#X obj 14 -58 inlet~;
#X obj 14 -32 outlet~;
#X obj 921 201 pack f f f f f f f f f f f;
#X msg 863 125 1;
#X obj 863 103 loadbang;
#X obj 20 -11 env~ 1024 4410;
#X obj 921 226 route 0;
#X obj 103 -59 inlet~;
#X obj 103 -33 outlet~;
#X obj 114 -12 env~ 1024 4410;
#X obj 200 -59 inlet~;
#X obj 200 -33 outlet~;
#X obj 206 -12 env~ 1024 4410;
#X obj 289 -60 inlet~;
#X obj 289 -34 outlet~;
#X obj 300 -13 env~ 1024 4410;
#X obj 386 -59 inlet~;
#X obj 386 -33 outlet~;
#X obj 392 -12 env~ 1024 4410;
#X obj 475 -60 inlet~;
#X obj 475 -34 outlet~;
#X obj 486 -13 env~ 1024 4410;
#X obj 572 -60 inlet~;
#X obj 572 -34 outlet~;
#X obj 578 -13 env~ 1024 4410;
#X obj 661 -61 inlet~;
#X obj 661 -35 outlet~;
#X obj 672 -14 env~ 1024 4410;
#X obj 758 -61 inlet~;
#X obj 758 -35 outlet~;
#X obj 764 -14 env~ 1024 4410;
#X obj 847 -62 inlet~;
#X obj 847 -36 outlet~;
#X obj 858 -15 env~ 1024 4410;
#X obj 863 150 metro 100;
#X obj 921 249 s \$0-levels-1;
#X connect 0 0 1 0;
#X connect 0 0 5 0;
#X connect 2 0 6 0;
#X connect 3 0 34 0;
#X connect 4 0 3 0;
#X connect 5 0 2 1;
#X connect 6 0 35 0;
#X connect 7 0 8 0;
#X connect 7 0 9 0;
#X connect 9 0 2 2;
#X connect 10 0 11 0;
#X connect 10 0 12 0;
#X connect 12 0 2 3;
#X connect 13 0 14 0;
#X connect 13 0 15 0;
#X connect 15 0 2 4;
#X connect 16 0 17 0;
#X connect 16 0 18 0;
#X connect 18 0 2 5;
#X connect 19 0 20 0;
#X connect 19 0 21 0;
#X connect 21 0 2 6;
#X connect 22 0 23 0;
#X connect 22 0 24 0;
#X connect 24 0 2 7;
#X connect 25 0 26 0;
#X connect 25 0 27 0;
#X connect 27 0 2 8;
#X connect 28 0 29 0;
#X connect 28 0 30 0;
#X connect 30 0 2 9;
#X connect 31 0 32 0;
#X connect 31 0 33 0;
#X connect 33 0 2 10;
#X connect 34 0 2 0;
#X restore 330 152 pd levels 1 -----------;
#N canvas 83 101 1123 513 levels 0;
#X obj 14 -58 inlet~;
#X obj 14 -32 outlet~;
#X obj 921 201 pack f f f f f f f f f f f;
#X msg 863 125 1;
#X obj 863 103 loadbang;
#X obj 20 -11 env~ 1024 4410;
#X obj 921 226 route 0;
#X obj 103 -59 inlet~;
#X obj 103 -33 outlet~;
#X obj 114 -12 env~ 1024 4410;
#X obj 200 -59 inlet~;
#X obj 200 -33 outlet~;
#X obj 206 -12 env~ 1024 4410;
#X obj 289 -60 inlet~;
#X obj 289 -34 outlet~;
#X obj 300 -13 env~ 1024 4410;
#X obj 386 -59 inlet~;
#X obj 386 -33 outlet~;
#X obj 392 -12 env~ 1024 4410;
#X obj 475 -60 inlet~;
#X obj 475 -34 outlet~;
#X obj 486 -13 env~ 1024 4410;
#X obj 572 -60 inlet~;
#X obj 572 -34 outlet~;
#X obj 578 -13 env~ 1024 4410;
#X obj 661 -61 inlet~;
#X obj 661 -35 outlet~;
#X obj 672 -14 env~ 1024 4410;
#X obj 758 -61 inlet~;
#X obj 758 -35 outlet~;
#X obj 764 -14 env~ 1024 4410;
#X obj 847 -62 inlet~;
#X obj 847 -36 outlet~;
#X obj 858 -15 env~ 1024 4410;
#X obj 863 150 metro 100;
#X obj 921 249 s \$0-levels-2;
#X connect 0 0 1 0;
#X connect 0 0 5 0;
#X connect 2 0 6 0;
#X connect 3 0 34 0;
#X connect 4 0 3 0;
#X connect 5 0 2 1;
#X connect 6 0 35 0;
#X connect 7 0 8 0;
#X connect 7 0 9 0;
#X connect 9 0 2 2;
#X connect 10 0 11 0;
#X connect 10 0 12 0;
#X connect 12 0 2 3;
#X connect 13 0 14 0;
#X connect 13 0 15 0;
#X connect 15 0 2 4;
#X connect 16 0 17 0;
#X connect 16 0 18 0;
#X connect 18 0 2 5;
#X connect 19 0 20 0;
#X connect 19 0 21 0;
#X connect 21 0 2 6;
#X connect 22 0 23 0;
#X connect 22 0 24 0;
#X connect 24 0 2 7;
#X connect 25 0 26 0;
#X connect 25 0 27 0;
#X connect 27 0 2 8;
#X connect 28 0 29 0;
#X connect 28 0 30 0;
#X connect 30 0 2 9;
#X connect 31 0 32 0;
#X connect 31 0 33 0;
#X connect 33 0 2 10;
#X connect 34 0 2 0;
#X restore 491 153 pd levels 2 -----------;
#N canvas 83 101 1123 513 levels 0;
#X obj 14 -58 inlet~;
#X obj 14 -32 outlet~;
#X obj 921 201 pack f f f f f f f f f f f;
#X msg 863 125 1;
#X obj 863 103 loadbang;
#X obj 20 -11 env~ 1024 4410;
#X obj 921 226 route 0;
#X obj 103 -59 inlet~;
#X obj 103 -33 outlet~;
#X obj 114 -12 env~ 1024 4410;
#X obj 200 -59 inlet~;
#X obj 200 -33 outlet~;
#X obj 206 -12 env~ 1024 4410;
#X obj 289 -60 inlet~;
#X obj 289 -34 outlet~;
#X obj 300 -13 env~ 1024 4410;
#X obj 386 -59 inlet~;
#X obj 386 -33 outlet~;
#X obj 392 -12 env~ 1024 4410;
#X obj 475 -60 inlet~;
#X obj 475 -34 outlet~;
#X obj 486 -13 env~ 1024 4410;
#X obj 572 -60 inlet~;
#X obj 572 -34 outlet~;
#X obj 578 -13 env~ 1024 4410;
#X obj 661 -61 inlet~;
#X obj 661 -35 outlet~;
#X obj 672 -14 env~ 1024 4410;
#X obj 758 -61 inlet~;
#X obj 758 -35 outlet~;
#X obj 764 -14 env~ 1024 4410;
#X obj 847 -62 inlet~;
#X obj 847 -36 outlet~;
#X obj 858 -15 env~ 1024 4410;
#X obj 863 150 metro 100;
#X obj 921 249 s \$0-levels-3;
#X connect 0 0 1 0;
#X connect 0 0 5 0;
#X connect 2 0 6 0;
#X connect 3 0 34 0;
#X connect 4 0 3 0;
#X connect 5 0 2 1;
#X connect 6 0 35 0;
#X connect 7 0 8 0;
#X connect 7 0 9 0;
#X connect 9 0 2 2;
#X connect 10 0 11 0;
#X connect 10 0 12 0;
#X connect 12 0 2 3;
#X connect 13 0 14 0;
#X connect 13 0 15 0;
#X connect 15 0 2 4;
#X connect 16 0 17 0;
#X connect 16 0 18 0;
#X connect 18 0 2 5;
#X connect 19 0 20 0;
#X connect 19 0 21 0;
#X connect 21 0 2 6;
#X connect 22 0 23 0;
#X connect 22 0 24 0;
#X connect 24 0 2 7;
#X connect 25 0 26 0;
#X connect 25 0 27 0;
#X connect 27 0 2 8;
#X connect 28 0 29 0;
#X connect 28 0 30 0;
#X connect 30 0 2 9;
#X connect 31 0 32 0;
#X connect 31 0 33 0;
#X connect 33 0 2 10;
#X connect 34 0 2 0;
#X restore 644 152 pd levels 3 -----------;
#N canvas 83 101 1123 513 levels 0;
#X obj 14 -58 inlet~;
#X obj 14 -32 outlet~;
#X msg 863 125 1;
#X obj 863 103 loadbang;
#X obj 20 -11 env~ 1024 4410;
#X obj 921 226 route 0;
#X obj 103 -59 inlet~;
#X obj 103 -33 outlet~;
#X obj 114 -12 env~ 1024 4410;
#X obj 200 -59 inlet~;
#X obj 200 -33 outlet~;
#X obj 206 -12 env~ 1024 4410;
#X obj 289 -60 inlet~;
#X obj 289 -34 outlet~;
#X obj 300 -13 env~ 1024 4410;
#X obj 386 -59 inlet~;
#X obj 386 -33 outlet~;
#X obj 392 -12 env~ 1024 4410;
#X obj 475 -60 inlet~;
#X obj 475 -34 outlet~;
#X obj 486 -13 env~ 1024 4410;
#X obj 572 -60 inlet~;
#X obj 572 -34 outlet~;
#X obj 578 -13 env~ 1024 4410;
#X obj 661 -61 inlet~;
#X obj 661 -35 outlet~;
#X obj 672 -14 env~ 1024 4410;
#X obj 758 -61 inlet~;
#X obj 758 -35 outlet~;
#X obj 764 -14 env~ 1024 4410;
#X obj 863 150 metro 100;
#X obj 921 249 s \$0-levels-4;
#X obj 921 201 pack f f f f f f f f f f;
#X connect 0 0 1 0;
#X connect 0 0 4 0;
#X connect 2 0 30 0;
#X connect 3 0 2 0;
#X connect 4 0 32 1;
#X connect 5 0 31 0;
#X connect 6 0 7 0;
#X connect 6 0 8 0;
#X connect 8 0 32 2;
#X connect 9 0 10 0;
#X connect 9 0 11 0;
#X connect 11 0 32 3;
#X connect 12 0 13 0;
#X connect 12 0 14 0;
#X connect 14 0 32 4;
#X connect 15 0 16 0;
#X connect 15 0 17 0;
#X connect 17 0 32 5;
#X connect 18 0 19 0;
#X connect 18 0 20 0;
#X connect 20 0 32 6;
#X connect 21 0 22 0;
#X connect 21 0 23 0;
#X connect 23 0 32 7;
#X connect 24 0 25 0;
#X connect 24 0 26 0;
#X connect 26 0 32 8;
#X connect 27 0 28 0;
#X connect 27 0 29 0;
#X connect 29 0 32 9;
#X connect 30 0 32 0;
#X connect 32 0 5 0;
#X restore 801 151 pd levels 4 -----------;
#X connect 0 0 35 0;
#X connect 0 1 35 1;
#X connect 0 2 35 2;
#X connect 0 3 35 3;
#X connect 0 4 35 4;
#X connect 0 5 35 5;
#X connect 0 6 35 6;
#X connect 0 7 35 7;
#X connect 0 8 35 8;
#X connect 0 9 35 9;
#X connect 1 0 36 0;
#X connect 1 1 36 1;
#X connect 1 2 36 2;
#X connect 1 3 36 3;
#X connect 1 4 36 4;
#X connect 1 5 36 5;
#X connect 1 6 36 6;
#X connect 1 7 36 7;
#X connect 1 8 36 8;
#X connect 1 9 36 9;
#X connect 2 0 37 0;
#X connect 2 1 37 1;
#X connect 2 2 37 2;
#X connect 2 3 37 3;
#X connect 2 4 37 4;
#X connect 2 5 37 5;
#X connect 2 6 37 6;
#X connect 2 7 37 7;
#X connect 2 8 37 8;
#X connect 3 0 26 0;
#X connect 3 0 27 0;
#X connect 3 0 0 0;
#X connect 3 0 1 0;
#X connect 3 0 2 0;
#X connect 4 0 30 0;
#X connect 5 0 7 0;
#X connect 7 0 15 0;
#X connect 7 0 10 0;
#X connect 7 1 15 1;
#X connect 7 1 10 1;
#X connect 7 2 15 2;
#X connect 7 2 10 2;
#X connect 7 3 15 3;
#X connect 7 3 10 3;
#X connect 7 4 15 4;
#X connect 7 4 10 4;
#X connect 7 5 15 5;
#X connect 7 5 10 5;
#X connect 7 6 15 6;
#X connect 7 6 10 6;
#X connect 10 0 8 0;
#X connect 10 1 9 0;
#X connect 10 2 13 0;
#X connect 10 3 14 0;
#X connect 11 0 12 0;
#X connect 11 0 10 7;
#X connect 12 0 15 7;
#X connect 15 0 8 0;
#X connect 15 1 9 0;
#X connect 16 0 17 0;
#X connect 17 0 21 0;
#X connect 17 1 20 0;
#X connect 20 0 8 0;
#X connect 20 1 9 0;
#X connect 20 2 13 0;
#X connect 20 3 14 0;
#X connect 21 0 22 0;
#X connect 22 0 20 0;
#X connect 23 0 30 0;
#X connect 23 2 24 0;
#X connect 24 0 23 0;
#X connect 25 0 23 0;
#X connect 26 0 6 0;
#X connect 26 1 31 0;
#X connect 26 2 31 1;
#X connect 26 3 31 2;
#X connect 26 4 31 3;
#X connect 26 5 31 4;
#X connect 26 6 31 5;
#X connect 26 7 31 6;
#X connect 26 8 31 7;
#X connect 26 9 31 8;
#X connect 26 10 31 9;
#X connect 27 0 34 0;
#X connect 27 1 34 1;
#X connect 27 2 34 2;
#X connect 27 3 34 3;
#X connect 27 4 34 4;
#X connect 27 5 34 5;
#X connect 27 6 34 6;
#X connect 27 7 34 7;
#X connect 27 8 34 8;
#X connect 27 9 34 9;
#X connect 28 0 29 0;
#X connect 29 0 12 0;
#X connect 30 0 7 0;
#X connect 30 1 7 1;
#X connect 30 2 7 2;
#X connect 30 3 7 3;
#X connect 30 4 7 4;
#X connect 30 5 7 5;
#X connect 30 6 7 6;
#X connect 31 0 30 0;
#X connect 31 1 30 1;
#X connect 31 2 30 2;
#X connect 31 3 30 3;
#X connect 31 4 30 4;
#X connect 31 5 30 5;
#X connect 31 6 30 6;
#X connect 31 7 30 7;
#X connect 31 8 30 8;
#X connect 31 9 30 9;
#X connect 34 0 30 10;
#X connect 34 1 30 11;
#X connect 34 2 30 12;
#X connect 34 3 30 13;
#X connect 34 4 30 14;
#X connect 34 5 30 15;
#X connect 34 6 30 16;
#X connect 34 7 30 17;
#X connect 34 8 30 18;
#X connect 34 9 30 19;
#X connect 35 0 30 20;
#X connect 35 1 30 21;
#X connect 35 2 30 22;
#X connect 35 3 30 23;
#X connect 35 4 30 24;
#X connect 35 5 30 25;
#X connect 35 6 30 26;
#X connect 35 7 30 27;
#X connect 35 8 30 28;
#X connect 35 9 30 29;
#X connect 36 0 30 30;
#X connect 36 1 30 31;
#X connect 36 2 30 32;
#X connect 36 3 30 33;
#X connect 36 4 30 34;
#X connect 36 5 30 35;
#X connect 36 6 30 36;
#X connect 36 7 30 37;
#X connect 36 8 30 38;
#X connect 36 9 30 39;
#X connect 37 0 30 40;
#X connect 37 1 30 41;
#X connect 37 2 30 42;
#X connect 37 3 30 43;
#X connect 37 4 30 44;
#X connect 37 5 30 45;
#X connect 37 6 30 46;
#X connect 37 7 30 47;
#X connect 37 8 30 48;
