#N canvas 0 194 1216 624 10;
#N canvas 166 149 323 453 files 0;
#X obj -444 -927 outlet~;
#X obj -438 -887 outlet~;
#X obj -432 -846 outlet~;
#X obj -428 -804 outlet~;
#X obj -423 -763 outlet~;
#X obj -417 -723 outlet~;
#X obj -411 -682 outlet~;
#X obj -407 -640 outlet~;
#X obj -401 -598 outlet~;
#X obj -397 -556 outlet~;
#X obj -538 -973 inlet;
#X obj -444 -948 file waves/21.ogg;
#X obj -438 -908 file waves/22.ogg;
#X obj -432 -867 file waves/23.ogg;
#X obj -428 -825 file waves/24.ogg;
#X obj -423 -784 file waves/25.ogg;
#X obj -417 -744 file waves/26.ogg;
#X obj -411 -703 file waves/27.ogg;
#X obj -407 -661 file waves/28.ogg;
#X obj -401 -619 file waves/29.ogg;
#X obj -397 -577 file waves/30.ogg;
#X connect 10 0 11 0;
#X connect 10 0 12 0;
#X connect 10 0 13 0;
#X connect 10 0 14 0;
#X connect 10 0 15 0;
#X connect 10 0 16 0;
#X connect 10 0 17 0;
#X connect 10 0 18 0;
#X connect 10 0 19 0;
#X connect 10 0 20 0;
#X connect 11 0 0 0;
#X connect 12 0 1 0;
#X connect 13 0 2 0;
#X connect 14 0 3 0;
#X connect 15 0 4 0;
#X connect 16 0 5 0;
#X connect 17 0 6 0;
#X connect 18 0 7 0;
#X connect 19 0 8 0;
#X connect 20 0 9 0;
#X restore 480 51 pd files 21 30 ---;
#N canvas 166 149 340 470 files 0;
#X obj -444 -927 outlet~;
#X obj -438 -887 outlet~;
#X obj -432 -846 outlet~;
#X obj -428 -804 outlet~;
#X obj -423 -763 outlet~;
#X obj -417 -723 outlet~;
#X obj -411 -682 outlet~;
#X obj -407 -640 outlet~;
#X obj -401 -598 outlet~;
#X obj -397 -556 outlet~;
#X obj -493 -971 inlet;
#X obj -444 -948 file waves/31.ogg;
#X obj -438 -908 file waves/32.ogg;
#X obj -432 -867 file waves/33.ogg;
#X obj -428 -825 file waves/34.ogg;
#X obj -423 -784 file waves/35.ogg;
#X obj -417 -744 file waves/36.ogg;
#X obj -411 -703 file waves/37.ogg;
#X obj -407 -661 file waves/38.ogg;
#X obj -401 -619 file waves/39.ogg;
#X obj -397 -577 file waves/40.ogg;
#X connect 10 0 11 0;
#X connect 10 0 12 0;
#X connect 10 0 13 0;
#X connect 10 0 14 0;
#X connect 10 0 15 0;
#X connect 10 0 16 0;
#X connect 10 0 17 0;
#X connect 10 0 18 0;
#X connect 10 0 19 0;
#X connect 10 0 20 0;
#X connect 11 0 0 0;
#X connect 12 0 1 0;
#X connect 13 0 2 0;
#X connect 14 0 3 0;
#X connect 15 0 4 0;
#X connect 16 0 5 0;
#X connect 17 0 6 0;
#X connect 18 0 7 0;
#X connect 19 0 8 0;
#X connect 20 0 9 0;
#X restore 626 51 pd files 31 40 ---;
#N canvas 190 132 314 430 files 0;
#X obj -444 -927 outlet~;
#X obj -438 -887 outlet~;
#X obj -432 -846 outlet~;
#X obj -428 -804 outlet~;
#X obj -423 -763 outlet~;
#X obj -417 -723 outlet~;
#X obj -411 -682 outlet~;
#X obj -407 -640 outlet~;
#X obj -401 -598 outlet~;
#X obj -490 -991 inlet;
#X obj -444 -948 file waves/41.ogg;
#X obj -438 -908 file waves/42.ogg;
#X obj -432 -867 file waves/43.ogg;
#X obj -428 -825 file waves/44.ogg;
#X obj -423 -784 file waves/45.ogg;
#X obj -417 -744 file waves/46.ogg;
#X obj -411 -703 file waves/47.ogg;
#X obj -407 -661 file waves/48.ogg;
#X obj -401 -619 file waves/49.ogg;
#X connect 9 0 10 0;
#X connect 9 0 11 0;
#X connect 9 0 12 0;
#X connect 9 0 13 0;
#X connect 9 0 14 0;
#X connect 9 0 15 0;
#X connect 9 0 16 0;
#X connect 9 0 17 0;
#X connect 9 0 18 0;
#X connect 10 0 0 0;
#X connect 11 0 1 0;
#X connect 12 0 2 0;
#X connect 13 0 3 0;
#X connect 14 0 4 0;
#X connect 15 0 5 0;
#X connect 16 0 6 0;
#X connect 17 0 7 0;
#X connect 18 0 8 0;
#X restore 777 51 pd files 41 50 ---;
#X obj 179 13 inlet files;
#X obj 16 21 inlet ambisonics;
#X obj 927 14 inlet reverb;
#N canvas 679 450 450 300 send 0;
#X obj 95 44 inlet;
#X obj 79 130 send playhead;
#X obj 79 93 f;
#X obj -45 20 loadbang;
#X msg 20 21 bang;
#X obj -35 70 metro 1000;
#X connect 0 0 2 1;
#X connect 2 0 1 0;
#X connect 3 0 5 0;
#X connect 4 0 5 0;
#X connect 5 0 2 0;
#X restore 81 98 pd send playhead;
#X obj 249 362 hoa.freeverb~ 3;
#X obj 249 472 outlet~;
#X obj 420 474 outlet~;
#N canvas 69 22 570 334 quad 0;
#X obj 58 16 inlet~;
#X obj 11 15 inlet~;
#X obj 107 16 inlet~;
#X obj 201 18 inlet~;
#X obj 154 17 inlet~;
#X obj 250 18 inlet~;
#X obj 294 19 inlet~;
#X obj 26 246 outlet~;
#X obj 79 246 outlet~;
#X obj 57 90 hoa.optim~ 3 @mode [ inPhase ] -----;
#X obj 57 122 hoa.decoder~ 3 irregular 4 @restitution [ panning ] @angles
[ 45 135 225 315];
#X obj 132 247 outlet~;
#X obj 185 247 outlet~;
#X obj 400 43 switch~;
#X obj 400 14 inlet;
#X connect 0 0 9 1;
#X connect 1 0 9 0;
#X connect 2 0 9 2;
#X connect 3 0 9 4;
#X connect 4 0 9 3;
#X connect 5 0 9 5;
#X connect 6 0 9 6;
#X connect 9 0 10 0;
#X connect 9 1 10 1;
#X connect 9 2 10 2;
#X connect 9 3 10 3;
#X connect 9 4 10 4;
#X connect 9 5 10 5;
#X connect 9 6 10 6;
#X connect 10 0 8 0;
#X connect 10 1 7 0;
#X connect 10 2 11 0;
#X connect 10 3 12 0;
#X connect 14 0 13 0;
#X restore 458 423 pd quad ----------------;
#X obj 1022 14 inlet quadraphonic;
#X obj 621 367 == 0;
#X obj 559 477 outlet~;
#X obj 730 479 outlet~;
#N canvas 659 281 570 334 stereo 0;
#X obj 58 16 inlet~;
#X obj 11 15 inlet~;
#X obj 107 16 inlet~;
#X obj 201 18 inlet~;
#X obj 154 17 inlet~;
#X obj 250 18 inlet~;
#X obj 294 19 inlet~;
#X obj 226 209 outlet~;
#X obj 53 233 outlet~;
#X obj 400 43 switch~;
#X obj 400 14 inlet;
#X obj 57 90 hoa.optim~ 3 @mode [ maxRe ];
#X obj 57 122 hoa.bin_sp_order3 -----------;
#X connect 0 0 11 1;
#X connect 1 0 11 0;
#X connect 2 0 11 2;
#X connect 3 0 11 4;
#X connect 4 0 11 3;
#X connect 5 0 11 5;
#X connect 6 0 11 6;
#X connect 10 0 9 0;
#X connect 11 0 12 0;
#X connect 11 1 12 1;
#X connect 11 2 12 2;
#X connect 11 3 12 3;
#X connect 11 4 12 4;
#X connect 11 5 12 5;
#X connect 11 6 12 6;
#X connect 12 0 8 0;
#X connect 12 1 7 0;
#X restore 255 423 pd stereo ----------------;
#X obj 1144 15 inlet test;
#X obj 866 294 t b f;
#X text 1736 259 .;
#X text 1213 16 <- 0 \, 1 \, 2 or 3;
#X obj 893 390 demultiplex~ 0 1 2 3;
#X msg 767 331 start;
#X obj 766 354 file waves/test.ogg;
#X obj 48 253 file waves/test.ogg;
#X msg 97 224 start;
#X msg 47 203 stop;
#N canvas 516 104 395 459 files 0;
#X obj -444 -927 outlet~;
#X obj -438 -887 outlet~;
#X obj -432 -846 outlet~;
#X obj -428 -804 outlet~;
#X obj -423 -763 outlet~;
#X obj -417 -723 outlet~;
#X obj -411 -682 outlet~;
#X obj -407 -640 outlet~;
#X obj -401 -598 outlet~;
#X obj -397 -556 outlet~;
#X obj -508 -970 inlet;
#X obj -444 -948 file waves/01.ogg;
#X obj -438 -908 file waves/02.ogg;
#X obj -432 -867 file waves/03.ogg;
#X obj -428 -825 file waves/04.ogg;
#X obj -423 -784 file waves/05.ogg;
#X obj -417 -744 file waves/06.ogg;
#X obj -411 -703 file waves/07.ogg;
#X obj -407 -661 file waves/08.ogg;
#X obj -401 -619 file waves/09.ogg;
#X obj -397 -577 file waves/10.ogg;
#X obj -616 -919 outlet playhead;
#X connect 10 0 11 0;
#X connect 10 0 12 0;
#X connect 10 0 13 0;
#X connect 10 0 14 0;
#X connect 10 0 15 0;
#X connect 10 0 16 0;
#X connect 10 0 17 0;
#X connect 10 0 18 0;
#X connect 10 0 19 0;
#X connect 10 0 20 0;
#X connect 11 0 0 0;
#X connect 11 1 21 0;
#X connect 12 0 1 0;
#X connect 13 0 2 0;
#X connect 14 0 3 0;
#X connect 15 0 4 0;
#X connect 16 0 5 0;
#X connect 17 0 6 0;
#X connect 18 0 7 0;
#X connect 19 0 8 0;
#X connect 20 0 9 0;
#X restore 180 51 pd files 1 10 -------;
#N canvas 166 149 314 430 files 0;
#X obj -444 -927 outlet~;
#X obj -438 -887 outlet~;
#X obj -432 -846 outlet~;
#X obj -428 -804 outlet~;
#X obj -423 -763 outlet~;
#X obj -417 -723 outlet~;
#X obj -411 -682 outlet~;
#X obj -407 -640 outlet~;
#X obj -401 -598 outlet~;
#X obj -397 -556 outlet~;
#X obj -504 -966 inlet;
#X obj -444 -948 file waves/11.ogg;
#X obj -438 -908 file waves/12.ogg;
#X obj -432 -867 file waves/13.ogg;
#X obj -428 -825 file waves/14.ogg;
#X obj -423 -784 file waves/15.ogg;
#X obj -417 -744 file waves/16.ogg;
#X obj -411 -703 file waves/17.ogg;
#X obj -407 -661 file waves/18.ogg;
#X obj -401 -619 file waves/19.ogg;
#X obj -397 -577 file waves/20.ogg;
#X connect 10 0 11 0;
#X connect 10 0 12 0;
#X connect 10 0 13 0;
#X connect 10 0 14 0;
#X connect 10 0 15 0;
#X connect 10 0 16 0;
#X connect 10 0 17 0;
#X connect 10 0 18 0;
#X connect 10 0 19 0;
#X connect 10 0 20 0;
#X connect 11 0 0 0;
#X connect 12 0 1 0;
#X connect 13 0 2 0;
#X connect 14 0 3 0;
#X connect 15 0 4 0;
#X connect 16 0 5 0;
#X connect 17 0 6 0;
#X connect 18 0 7 0;
#X connect 19 0 8 0;
#X connect 20 0 9 0;
#X restore 342 50 pd files 11 20 ---;
#X obj 621 317 loadbang;
#X msg 621 342 0;
#X obj 249 297 hoa.map~ 3 49 ------------------------------------------------------------
;
#N canvas 56 56 998 402 levels 0;
#X obj 24 150 inlet~;
#X obj 24 297 outlet~;
#X obj 61 189 env~;
#X obj 46 210 f;
#X obj 135 266 send level;
#X obj 348 81 metro 200;
#X msg 348 56 1;
#X obj 348 34 loadbang;
#X obj 113 149 inlet~;
#X obj 113 296 outlet~;
#X obj 150 188 env~;
#X obj 135 209 f;
#X obj 46 263 send level;
#X obj 206 149 inlet~;
#X obj 206 296 outlet~;
#X obj 243 188 env~;
#X obj 228 209 f;
#X obj 317 265 send level;
#X obj 295 148 inlet~;
#X obj 295 295 outlet~;
#X obj 332 187 env~;
#X obj 317 208 f;
#X obj 228 262 send level;
#X obj 412 149 inlet~;
#X obj 412 296 outlet~;
#X obj 449 188 env~;
#X obj 434 209 f;
#X obj 523 265 send level;
#X obj 501 148 inlet~;
#X obj 501 295 outlet~;
#X obj 538 187 env~;
#X obj 523 208 f;
#X obj 434 262 send level;
#X obj 594 148 inlet~;
#X obj 594 295 outlet~;
#X obj 631 187 env~;
#X obj 616 208 f;
#X obj 705 264 send level;
#X obj 683 147 inlet~;
#X obj 683 294 outlet~;
#X obj 720 186 env~;
#X obj 705 207 f;
#X obj 616 261 send level;
#X obj 778 145 inlet~;
#X obj 778 292 outlet~;
#X obj 815 184 env~;
#X obj 800 205 f;
#X obj 889 261 send level;
#X obj 867 144 inlet~;
#X obj 867 291 outlet~;
#X obj 904 183 env~;
#X obj 889 204 f;
#X obj 800 258 send level;
#X msg 45 234 31 \$1;
#X msg 135 232 32 \$1;
#X msg 228 232 33 \$1;
#X msg 317 231 34 \$1;
#X msg 434 232 35 \$1;
#X msg 522 231 36 \$1;
#X msg 616 231 37 \$1;
#X msg 705 230 38 \$1;
#X msg 800 228 39 \$1;
#X msg 889 227 40 \$1;
#X connect 0 0 1 0;
#X connect 0 0 2 0;
#X connect 2 0 3 1;
#X connect 3 0 53 0;
#X connect 5 0 3 0;
#X connect 5 0 11 0;
#X connect 5 0 16 0;
#X connect 5 0 21 0;
#X connect 5 0 26 0;
#X connect 5 0 31 0;
#X connect 5 0 36 0;
#X connect 5 0 41 0;
#X connect 5 0 46 0;
#X connect 5 0 51 0;
#X connect 6 0 5 0;
#X connect 7 0 6 0;
#X connect 8 0 9 0;
#X connect 8 0 10 0;
#X connect 10 0 11 1;
#X connect 11 0 54 0;
#X connect 13 0 14 0;
#X connect 13 0 15 0;
#X connect 15 0 16 1;
#X connect 16 0 55 0;
#X connect 18 0 19 0;
#X connect 18 0 20 0;
#X connect 20 0 21 1;
#X connect 21 0 56 0;
#X connect 23 0 24 0;
#X connect 23 0 25 0;
#X connect 25 0 26 1;
#X connect 26 0 57 0;
#X connect 28 0 29 0;
#X connect 28 0 30 0;
#X connect 30 0 31 1;
#X connect 31 0 58 0;
#X connect 33 0 34 0;
#X connect 33 0 35 0;
#X connect 35 0 36 1;
#X connect 36 0 59 0;
#X connect 38 0 39 0;
#X connect 38 0 40 0;
#X connect 40 0 41 1;
#X connect 41 0 60 0;
#X connect 43 0 44 0;
#X connect 43 0 45 0;
#X connect 45 0 46 1;
#X connect 46 0 61 0;
#X connect 48 0 49 0;
#X connect 48 0 50 0;
#X connect 50 0 51 1;
#X connect 51 0 62 0;
#X connect 53 0 12 0;
#X connect 54 0 4 0;
#X connect 55 0 22 0;
#X connect 56 0 17 0;
#X connect 57 0 32 0;
#X connect 58 0 27 0;
#X connect 59 0 42 0;
#X connect 60 0 37 0;
#X connect 61 0 52 0;
#X connect 62 0 47 0;
#X restore 628 151 pd levels 3 ---------;
#N canvas 80 250 1035 505 levels 0;
#X obj 41 186 inlet~;
#X obj 41 333 outlet~;
#X obj 78 225 env~;
#X obj 63 246 f;
#X obj 152 302 send level;
#X obj 365 117 metro 200;
#X msg 365 92 1;
#X obj 365 70 loadbang;
#X obj 130 185 inlet~;
#X obj 130 332 outlet~;
#X obj 167 224 env~;
#X obj 152 245 f;
#X obj 63 299 send level;
#X obj 223 185 inlet~;
#X obj 223 332 outlet~;
#X obj 260 224 env~;
#X obj 245 245 f;
#X obj 334 301 send level;
#X obj 312 184 inlet~;
#X obj 312 331 outlet~;
#X obj 349 223 env~;
#X obj 334 244 f;
#X obj 245 298 send level;
#X obj 429 185 inlet~;
#X obj 429 332 outlet~;
#X obj 466 224 env~;
#X obj 451 245 f;
#X obj 540 301 send level;
#X obj 518 184 inlet~;
#X obj 518 331 outlet~;
#X obj 555 223 env~;
#X obj 540 244 f;
#X obj 451 298 send level;
#X obj 611 184 inlet~;
#X obj 611 331 outlet~;
#X obj 648 223 env~;
#X obj 633 244 f;
#X obj 722 300 send level;
#X obj 700 183 inlet~;
#X obj 700 330 outlet~;
#X obj 737 222 env~;
#X obj 722 243 f;
#X obj 633 297 send level;
#X obj 795 181 inlet~;
#X obj 795 328 outlet~;
#X obj 832 220 env~;
#X obj 817 241 f;
#X obj 906 297 send level;
#X obj 884 180 inlet~;
#X obj 884 327 outlet~;
#X obj 921 219 env~;
#X obj 906 240 f;
#X obj 817 294 send level;
#X msg 62 270 21 \$1;
#X msg 152 268 22 \$1;
#X msg 245 268 23 \$1;
#X msg 334 267 24 \$1;
#X msg 451 268 25 \$1;
#X msg 540 267 26 \$1;
#X msg 633 267 27 \$1;
#X msg 722 266 28 \$1;
#X msg 817 264 29 \$1;
#X msg 906 263 30 \$1;
#X connect 0 0 1 0;
#X connect 0 0 2 0;
#X connect 2 0 3 1;
#X connect 3 0 53 0;
#X connect 5 0 3 0;
#X connect 5 0 11 0;
#X connect 5 0 16 0;
#X connect 5 0 21 0;
#X connect 5 0 26 0;
#X connect 5 0 31 0;
#X connect 5 0 36 0;
#X connect 5 0 41 0;
#X connect 5 0 46 0;
#X connect 5 0 51 0;
#X connect 6 0 5 0;
#X connect 7 0 6 0;
#X connect 8 0 9 0;
#X connect 8 0 10 0;
#X connect 10 0 11 1;
#X connect 11 0 54 0;
#X connect 13 0 14 0;
#X connect 13 0 15 0;
#X connect 15 0 16 1;
#X connect 16 0 55 0;
#X connect 18 0 19 0;
#X connect 18 0 20 0;
#X connect 20 0 21 1;
#X connect 21 0 56 0;
#X connect 23 0 24 0;
#X connect 23 0 25 0;
#X connect 25 0 26 1;
#X connect 26 0 57 0;
#X connect 28 0 29 0;
#X connect 28 0 30 0;
#X connect 30 0 31 1;
#X connect 31 0 58 0;
#X connect 33 0 34 0;
#X connect 33 0 35 0;
#X connect 35 0 36 1;
#X connect 36 0 59 0;
#X connect 38 0 39 0;
#X connect 38 0 40 0;
#X connect 40 0 41 1;
#X connect 41 0 60 0;
#X connect 43 0 44 0;
#X connect 43 0 45 0;
#X connect 45 0 46 1;
#X connect 46 0 61 0;
#X connect 48 0 49 0;
#X connect 48 0 50 0;
#X connect 50 0 51 1;
#X connect 51 0 62 0;
#X connect 53 0 12 0;
#X connect 54 0 4 0;
#X connect 55 0 22 0;
#X connect 56 0 17 0;
#X connect 57 0 32 0;
#X connect 58 0 27 0;
#X connect 59 0 42 0;
#X connect 60 0 37 0;
#X connect 61 0 52 0;
#X connect 62 0 47 0;
#X restore 479 152 pd levels 2 ---------;
#N canvas 159 165 967 421 levels 0;
#X obj 12 99 inlet~;
#X obj 12 246 outlet~;
#X obj 49 138 env~;
#X obj 34 159 f;
#X obj 123 215 send level;
#X obj 336 30 metro 200;
#X msg 336 5 1;
#X obj 336 -17 loadbang;
#X obj 101 98 inlet~;
#X obj 101 245 outlet~;
#X obj 138 137 env~;
#X obj 123 158 f;
#X obj 34 212 send level;
#X obj 194 98 inlet~;
#X obj 194 245 outlet~;
#X obj 231 137 env~;
#X obj 216 158 f;
#X obj 305 214 send level;
#X obj 283 97 inlet~;
#X obj 283 244 outlet~;
#X obj 320 136 env~;
#X obj 305 157 f;
#X obj 216 211 send level;
#X obj 400 98 inlet~;
#X obj 400 245 outlet~;
#X obj 437 137 env~;
#X obj 422 158 f;
#X obj 511 214 send level;
#X obj 489 97 inlet~;
#X obj 489 244 outlet~;
#X obj 526 136 env~;
#X obj 511 157 f;
#X obj 422 211 send level;
#X obj 582 97 inlet~;
#X obj 582 244 outlet~;
#X obj 619 136 env~;
#X obj 604 157 f;
#X obj 693 213 send level;
#X obj 671 96 inlet~;
#X obj 671 243 outlet~;
#X obj 708 135 env~;
#X obj 693 156 f;
#X obj 604 210 send level;
#X obj 766 94 inlet~;
#X obj 766 241 outlet~;
#X obj 803 133 env~;
#X obj 788 154 f;
#X obj 877 210 send level;
#X obj 855 93 inlet~;
#X obj 855 240 outlet~;
#X obj 892 132 env~;
#X obj 877 153 f;
#X obj 788 207 send level;
#X msg 33 183 11 \$1;
#X msg 123 181 12 \$1;
#X msg 216 181 13 \$1;
#X msg 305 180 14 \$1;
#X msg 422 181 15 \$1;
#X msg 511 180 16 \$1;
#X msg 604 180 17 \$1;
#X msg 693 179 18 \$1;
#X msg 788 177 19 \$1;
#X msg 877 176 20 \$1;
#X connect 0 0 1 0;
#X connect 0 0 2 0;
#X connect 2 0 3 1;
#X connect 3 0 53 0;
#X connect 5 0 3 0;
#X connect 5 0 11 0;
#X connect 5 0 16 0;
#X connect 5 0 21 0;
#X connect 5 0 26 0;
#X connect 5 0 31 0;
#X connect 5 0 36 0;
#X connect 5 0 41 0;
#X connect 5 0 46 0;
#X connect 5 0 51 0;
#X connect 6 0 5 0;
#X connect 7 0 6 0;
#X connect 8 0 9 0;
#X connect 8 0 10 0;
#X connect 10 0 11 1;
#X connect 11 0 54 0;
#X connect 13 0 14 0;
#X connect 13 0 15 0;
#X connect 15 0 16 1;
#X connect 16 0 55 0;
#X connect 18 0 19 0;
#X connect 18 0 20 0;
#X connect 20 0 21 1;
#X connect 21 0 56 0;
#X connect 23 0 24 0;
#X connect 23 0 25 0;
#X connect 25 0 26 1;
#X connect 26 0 57 0;
#X connect 28 0 29 0;
#X connect 28 0 30 0;
#X connect 30 0 31 1;
#X connect 31 0 58 0;
#X connect 33 0 34 0;
#X connect 33 0 35 0;
#X connect 35 0 36 1;
#X connect 36 0 59 0;
#X connect 38 0 39 0;
#X connect 38 0 40 0;
#X connect 40 0 41 1;
#X connect 41 0 60 0;
#X connect 43 0 44 0;
#X connect 43 0 45 0;
#X connect 45 0 46 1;
#X connect 46 0 61 0;
#X connect 48 0 49 0;
#X connect 48 0 50 0;
#X connect 50 0 51 1;
#X connect 51 0 62 0;
#X connect 53 0 12 0;
#X connect 54 0 4 0;
#X connect 55 0 22 0;
#X connect 56 0 17 0;
#X connect 57 0 32 0;
#X connect 58 0 27 0;
#X connect 59 0 42 0;
#X connect 60 0 37 0;
#X connect 61 0 52 0;
#X connect 62 0 47 0;
#X restore 335 151 pd levels 1 ---------;
#N canvas 54 136 1010 498 levels 0;
#X obj 42 49 inlet~;
#X obj 42 196 outlet~;
#X obj 79 88 env~;
#X obj 64 109 f;
#X obj 153 165 send level;
#X msg 64 132 1 \$1;
#X obj 366 -20 metro 200;
#X msg 366 -45 1;
#X obj 366 -67 loadbang;
#X obj 131 48 inlet~;
#X obj 131 195 outlet~;
#X obj 168 87 env~;
#X obj 153 108 f;
#X obj 64 162 send level;
#X obj 224 48 inlet~;
#X obj 224 195 outlet~;
#X obj 261 87 env~;
#X obj 246 108 f;
#X obj 335 164 send level;
#X obj 313 47 inlet~;
#X obj 313 194 outlet~;
#X obj 350 86 env~;
#X obj 335 107 f;
#X obj 246 161 send level;
#X obj 430 48 inlet~;
#X obj 430 195 outlet~;
#X obj 467 87 env~;
#X obj 452 108 f;
#X obj 541 164 send level;
#X obj 519 47 inlet~;
#X obj 519 194 outlet~;
#X obj 556 86 env~;
#X obj 541 107 f;
#X obj 452 161 send level;
#X obj 612 47 inlet~;
#X obj 612 194 outlet~;
#X obj 649 86 env~;
#X obj 634 107 f;
#X obj 723 163 send level;
#X obj 701 46 inlet~;
#X obj 701 193 outlet~;
#X obj 738 85 env~;
#X obj 723 106 f;
#X obj 634 160 send level;
#X obj 796 44 inlet~;
#X obj 796 191 outlet~;
#X obj 833 83 env~;
#X obj 818 104 f;
#X obj 907 160 send level;
#X obj 885 43 inlet~;
#X obj 885 190 outlet~;
#X obj 922 82 env~;
#X obj 907 103 f;
#X obj 818 157 send level;
#X msg 153 131 2 \$1;
#X msg 246 131 3 \$1;
#X msg 335 130 4 \$1;
#X msg 452 131 5 \$1;
#X msg 541 130 6 \$1;
#X msg 634 130 7 \$1;
#X msg 723 129 8 \$1;
#X msg 818 127 9 \$1;
#X msg 907 126 10 \$1;
#X connect 0 0 1 0;
#X connect 0 0 2 0;
#X connect 2 0 3 1;
#X connect 3 0 5 0;
#X connect 5 0 13 0;
#X connect 6 0 3 0;
#X connect 6 0 12 0;
#X connect 6 0 17 0;
#X connect 6 0 22 0;
#X connect 6 0 27 0;
#X connect 6 0 32 0;
#X connect 6 0 37 0;
#X connect 6 0 42 0;
#X connect 6 0 47 0;
#X connect 6 0 52 0;
#X connect 7 0 6 0;
#X connect 8 0 7 0;
#X connect 9 0 10 0;
#X connect 9 0 11 0;
#X connect 11 0 12 1;
#X connect 12 0 54 0;
#X connect 14 0 15 0;
#X connect 14 0 16 0;
#X connect 16 0 17 1;
#X connect 17 0 55 0;
#X connect 19 0 20 0;
#X connect 19 0 21 0;
#X connect 21 0 22 1;
#X connect 22 0 56 0;
#X connect 24 0 25 0;
#X connect 24 0 26 0;
#X connect 26 0 27 1;
#X connect 27 0 57 0;
#X connect 29 0 30 0;
#X connect 29 0 31 0;
#X connect 31 0 32 1;
#X connect 32 0 58 0;
#X connect 34 0 35 0;
#X connect 34 0 36 0;
#X connect 36 0 37 1;
#X connect 37 0 59 0;
#X connect 39 0 40 0;
#X connect 39 0 41 0;
#X connect 41 0 42 1;
#X connect 42 0 60 0;
#X connect 44 0 45 0;
#X connect 44 0 46 0;
#X connect 46 0 47 1;
#X connect 47 0 61 0;
#X connect 49 0 50 0;
#X connect 49 0 51 0;
#X connect 51 0 52 1;
#X connect 52 0 62 0;
#X connect 54 0 4 0;
#X connect 55 0 23 0;
#X connect 56 0 18 0;
#X connect 57 0 33 0;
#X connect 58 0 28 0;
#X connect 59 0 43 0;
#X connect 60 0 38 0;
#X connect 61 0 53 0;
#X connect 62 0 48 0;
#X restore 177 153 pd levels 0 -----------;
#N canvas 83 279 997 413 levels 0;
#X obj 34 160 inlet~;
#X obj 34 307 outlet~;
#X obj 71 199 env~;
#X obj 56 220 f;
#X obj 145 276 send level;
#X obj 358 91 metro 200;
#X msg 358 66 1;
#X obj 358 44 loadbang;
#X obj 123 159 inlet~;
#X obj 123 306 outlet~;
#X obj 160 198 env~;
#X obj 145 219 f;
#X obj 56 273 send level;
#X obj 216 159 inlet~;
#X obj 216 306 outlet~;
#X obj 253 198 env~;
#X obj 238 219 f;
#X obj 327 275 send level;
#X obj 305 158 inlet~;
#X obj 305 305 outlet~;
#X obj 342 197 env~;
#X obj 327 218 f;
#X obj 238 272 send level;
#X obj 422 159 inlet~;
#X obj 422 306 outlet~;
#X obj 459 198 env~;
#X obj 444 219 f;
#X obj 533 275 send level;
#X obj 511 158 inlet~;
#X obj 511 305 outlet~;
#X obj 548 197 env~;
#X obj 533 218 f;
#X obj 444 272 send level;
#X obj 604 158 inlet~;
#X obj 604 305 outlet~;
#X obj 641 197 env~;
#X obj 626 218 f;
#X obj 715 274 send level;
#X obj 693 157 inlet~;
#X obj 693 304 outlet~;
#X obj 730 196 env~;
#X obj 715 217 f;
#X obj 626 271 send level;
#X obj 788 155 inlet~;
#X obj 788 302 outlet~;
#X obj 825 194 env~;
#X obj 810 215 f;
#X obj 810 268 send level;
#X msg 55 244 41 \$1;
#X msg 145 242 42 \$1;
#X msg 238 242 43 \$1;
#X msg 327 241 44 \$1;
#X msg 444 242 45 \$1;
#X msg 532 241 46 \$1;
#X msg 626 241 47 \$1;
#X msg 715 241 48 \$1;
#X msg 812 239 49 \$1;
#X connect 0 0 1 0;
#X connect 0 0 2 0;
#X connect 2 0 3 1;
#X connect 3 0 48 0;
#X connect 5 0 3 0;
#X connect 5 0 11 0;
#X connect 5 0 16 0;
#X connect 5 0 21 0;
#X connect 5 0 26 0;
#X connect 5 0 31 0;
#X connect 5 0 36 0;
#X connect 5 0 41 0;
#X connect 5 0 46 0;
#X connect 6 0 5 0;
#X connect 7 0 6 0;
#X connect 8 0 9 0;
#X connect 8 0 10 0;
#X connect 10 0 11 1;
#X connect 11 0 49 0;
#X connect 13 0 14 0;
#X connect 13 0 15 0;
#X connect 15 0 16 1;
#X connect 16 0 50 0;
#X connect 18 0 19 0;
#X connect 18 0 20 0;
#X connect 20 0 21 1;
#X connect 21 0 51 0;
#X connect 23 0 24 0;
#X connect 23 0 25 0;
#X connect 25 0 26 1;
#X connect 26 0 52 0;
#X connect 28 0 29 0;
#X connect 28 0 30 0;
#X connect 30 0 31 1;
#X connect 31 0 53 0;
#X connect 33 0 34 0;
#X connect 33 0 35 0;
#X connect 35 0 36 1;
#X connect 36 0 54 0;
#X connect 38 0 39 0;
#X connect 38 0 40 0;
#X connect 40 0 41 1;
#X connect 41 0 55 0;
#X connect 43 0 44 0;
#X connect 43 0 45 0;
#X connect 45 0 46 1;
#X connect 46 0 56 0;
#X connect 48 0 12 0;
#X connect 49 0 4 0;
#X connect 50 0 22 0;
#X connect 51 0 17 0;
#X connect 52 0 32 0;
#X connect 53 0 27 0;
#X connect 54 0 42 0;
#X connect 55 0 37 0;
#X connect 56 0 47 0;
#X restore 777 151 pd levels 4 ---------;
#X connect 0 0 32 0;
#X connect 0 1 32 1;
#X connect 0 2 32 2;
#X connect 0 3 32 3;
#X connect 0 4 32 4;
#X connect 0 5 32 5;
#X connect 0 6 32 6;
#X connect 0 7 32 7;
#X connect 0 8 32 8;
#X connect 0 9 32 9;
#X connect 1 0 31 0;
#X connect 1 1 31 1;
#X connect 1 2 31 2;
#X connect 1 3 31 3;
#X connect 1 4 31 4;
#X connect 1 5 31 5;
#X connect 1 6 31 6;
#X connect 1 7 31 7;
#X connect 1 8 31 8;
#X connect 1 9 31 9;
#X connect 2 0 35 0;
#X connect 2 1 35 1;
#X connect 2 2 35 2;
#X connect 2 3 35 3;
#X connect 2 4 35 4;
#X connect 2 5 35 5;
#X connect 2 6 35 6;
#X connect 2 7 35 7;
#X connect 2 8 35 8;
#X connect 3 0 26 0;
#X connect 3 0 27 0;
#X connect 3 0 0 0;
#X connect 3 0 1 0;
#X connect 3 0 2 0;
#X connect 4 0 30 0;
#X connect 5 0 7 0;
#X connect 7 0 15 0;
#X connect 7 0 10 0;
#X connect 7 1 15 1;
#X connect 7 1 10 1;
#X connect 7 2 15 2;
#X connect 7 2 10 2;
#X connect 7 3 15 3;
#X connect 7 3 10 3;
#X connect 7 4 15 4;
#X connect 7 4 10 4;
#X connect 7 5 15 5;
#X connect 7 5 10 5;
#X connect 7 6 15 6;
#X connect 7 6 10 6;
#X connect 10 0 8 0;
#X connect 10 1 9 0;
#X connect 10 2 13 0;
#X connect 10 3 14 0;
#X connect 11 0 12 0;
#X connect 11 0 10 7;
#X connect 12 0 15 7;
#X connect 15 0 8 0;
#X connect 15 1 9 0;
#X connect 16 0 17 0;
#X connect 17 0 21 0;
#X connect 17 1 20 0;
#X connect 20 0 8 0;
#X connect 20 1 9 0;
#X connect 20 2 13 0;
#X connect 20 3 14 0;
#X connect 21 0 22 0;
#X connect 22 0 20 0;
#X connect 23 0 30 0;
#X connect 23 2 24 0;
#X connect 24 0 23 0;
#X connect 25 0 23 0;
#X connect 26 0 6 0;
#X connect 26 1 34 0;
#X connect 26 2 34 1;
#X connect 26 3 34 2;
#X connect 26 4 34 3;
#X connect 26 5 34 4;
#X connect 26 6 34 5;
#X connect 26 7 34 6;
#X connect 26 8 34 7;
#X connect 26 9 34 8;
#X connect 26 10 34 9;
#X connect 27 0 33 0;
#X connect 27 1 33 1;
#X connect 27 2 33 2;
#X connect 27 3 33 3;
#X connect 27 4 33 4;
#X connect 27 5 33 5;
#X connect 27 6 33 6;
#X connect 27 7 33 7;
#X connect 27 8 33 8;
#X connect 27 9 33 9;
#X connect 28 0 29 0;
#X connect 29 0 12 0;
#X connect 30 0 7 0;
#X connect 30 1 7 1;
#X connect 30 2 7 2;
#X connect 30 3 7 3;
#X connect 30 4 7 4;
#X connect 30 5 7 5;
#X connect 30 6 7 6;
#X connect 31 0 30 30;
#X connect 31 1 30 31;
#X connect 31 2 30 32;
#X connect 31 3 30 33;
#X connect 31 4 30 34;
#X connect 31 5 30 35;
#X connect 31 6 30 36;
#X connect 31 7 30 37;
#X connect 31 8 30 38;
#X connect 31 9 30 39;
#X connect 32 0 30 20;
#X connect 32 1 30 21;
#X connect 32 2 30 22;
#X connect 32 3 30 23;
#X connect 32 4 30 24;
#X connect 32 5 30 25;
#X connect 32 6 30 26;
#X connect 32 7 30 27;
#X connect 32 8 30 28;
#X connect 32 9 30 29;
#X connect 33 0 30 10;
#X connect 33 1 30 11;
#X connect 33 2 30 12;
#X connect 33 3 30 13;
#X connect 33 4 30 14;
#X connect 33 5 30 15;
#X connect 33 6 30 16;
#X connect 33 7 30 17;
#X connect 33 8 30 18;
#X connect 33 9 30 19;
#X connect 34 0 30 0;
#X connect 34 1 30 1;
#X connect 34 2 30 2;
#X connect 34 3 30 3;
#X connect 34 4 30 4;
#X connect 34 5 30 5;
#X connect 34 6 30 6;
#X connect 34 7 30 7;
#X connect 34 8 30 8;
#X connect 34 9 30 9;
#X connect 35 0 30 40;
#X connect 35 1 30 41;
#X connect 35 2 30 42;
#X connect 35 3 30 43;
#X connect 35 4 30 44;
#X connect 35 5 30 45;
#X connect 35 6 30 46;
#X connect 35 7 30 47;
#X connect 35 8 30 48;
