#N canvas 196 27 1075 696 10;
#X declare -path abstractions;
#X declare -path ../vendors/hoa/HoaLibrary/PureData/builds/;
#X declare -path dbm;
#X msg 427 53 start;
#X msg 453 103 stop;
#X msg 439 78 resume;
#X text 475 51 play file from beginning;
#X text 495 103 stop (pause) playing;
#X text 485 76 resume playing at current position;
#X obj 436 530 sound-space-dsp;
#X obj 630 6 dbm-connect;
#X obj 10 106 hoa.map @patching_rect [ 10 106 400 400 ] @size [ 400
400 ] @fontname [ helvetica ] @fontweight [ normal ] @fontslant [ regular
] @fontsize [ 11 ] @bgcolor [ 0.9 0.9 0.9 1 ] @bgcolor2 [ 0.75 0.75
0.75 1 ] @bdcolor [ 0 0 0 1 ] @selcolor [ 0.36 0.36 0.37 0.5 ] @outputmode
[ 0 ] @zoom [ 0.7 ] sources_parameters [ source 0 -0.959919 -0.92343
0 0.2 0.2 0.2 1 s_nosymbol source 1 -0.651367 -0.925826 0 0.2 0.2 0.2
1 s_nosymbol source 2 -0.332656 -0.925288 0 0.2 0.2 0.2 1 s_nosymbol
source 3 -0.0278968 -0.925312 0 0.2 0.2 0.2 1 s_nosymbol source 4 -0.956174
-0.612454 0 0.2 0.2 0.2 1 s_nosymbol source 5 -0.653919 -0.615734 0
0.2 0.2 0.2 1 s_nosymbol source 6 -0.336455 -0.616033 0 0.2 0.2 0.2
1 s_nosymbol source 7 -0.958811 -0.296252 0 0.2 0.2 0.2 1 s_nosymbol
source 8 -0.646583 -0.293997 0 0.2 0.2 0.2 1 s_nosymbol source 9 -0.959652
0.0177407 0 0.2 0.2 0.2 1 s_nosymbol source 10 0.604578 -0.926094 0
0.2 0.2 0.2 1 s_nosymbol source 11 0.287528 -0.92486 0 0.2 0.2 0.2
1 s_nosymbol source 12 0.288137 -0.619598 0 0.2 0.2 0.2 1 s_nosymbol
source 13 -0.0248165 -0.615229 0 0.2 0.2 0.2 1 s_nosymbol source 14
-0.0247579 -0.297755 0 0.2 0.2 0.2 1 s_nosymbol source 15 -0.333484
-0.296047 0 0.2 0.2 0.2 1 s_nosymbol source 16 -0.333717 0.0178921
0 0.2 0.2 0.2 1 s_nosymbol source 17 -0.649327 0.0185297 0 0.2 0.2
0.2 1 s_nosymbol source 18 -0.644733 0.329328 0 0.2 0.2 0.2 1 s_nosymbol
source 19 -0.96126 0.330302 0 0.2 0.2 0.2 1 s_nosymbol source 20 -0.959781
0.642626 0 0.2 0.2 0.2 1 s_nosymbol source 21 -0.0228533 0.0189475
0 0.2 0.2 0.2 1 s_nosymbol source 22 0.292299 0.0173072 0 0.2 0.2 0.2
1 s_nosymbol source 23 0.289951 -0.297893 0 0.2 0.2 0.2 1 s_nosymbol
source 24 0.606364 -0.299446 0 0.2 0.2 0.2 1 s_nosymbol source 25 0.598627
-0.616752 0 0.2 0.2 0.2 1 s_nosymbol source 26 0.912892 -0.619482 0
0.2 0.2 0.2 1 s_nosymbol source 27 0.917046 -0.9243 0 0.2 0.2 0.2 1
s_nosymbol source 28 -0.0198444 0.332748 0 0.2 0.2 0.2 1 s_nosymbol
source 29 -0.330639 0.333201 0 0.2 0.2 0.2 1 s_nosymbol source 30 -0.33616
0.637367 0 0.2 0.2 0.2 1 s_nosymbol source 31 -0.649922 0.638805 0
0.2 0.2 0.2 1 s_nosymbol source 32 -0.650808 0.953782 0 0.2 0.2 0.2
1 s_nosymbol source 33 -0.961319 0.959968 0 0.2 0.2 0.2 1 s_nosymbol
source 34 0.920137 -0.298094 0 0.2 0.2 0.2 1 s_nosymbol source 35 0.608263
0.0215593 0 0.2 0.2 0.2 1 s_nosymbol source 36 0.919394 0.0233729 0
0.2 0.2 0.2 1 s_nosymbol source 37 0.294085 0.33073 0 0.2 0.2 0.2 1
s_nosymbol source 38 0.609092 0.334401 0 0.2 0.2 0.2 1 s_nosymbol source
39 -0.0183997 0.639444 0 0.2 0.2 0.2 1 s_nosymbol source 40 0.29334
0.640324 0 0.2 0.2 0.2 1 s_nosymbol source 41 -0.335966 0.95497 0 0.2
0.2 0.2 1 s_nosymbol source 42 -0.0199216 0.956802 0 0.2 0.2 0.2 1
s_nosymbol source 43 0.920275 0.954675 0 0.2 0.2 0.2 1 s_nosymbol source
44 0.602012 0.955719 0 0.2 0.2 0.2 1 s_nosymbol source 45 0.290728
0.955771 0 0.2 0.2 0.2 1 s_nosymbol source 46 0.919261 0.641471 0 0.2
0.2 0.2 1 s_nosymbol source 47 0.606053 0.642496 0 0.2 0.2 0.2 1 s_nosymbol
source 48 0.923365 0.335644 0 0.2 0.2 0.2 1 s_nosymbol ] groups_parameters
[ group 0 49 0 1 2 3 4 5 6 7 8 9 10 11 12 13 14 15 16 17 18 19 20 21
22 23 24 25 26 27 28 29 30 31 32 33 34 35 36 37 38 39 40 41 42 43 44
45 46 47 48 0 0.2 0.2 0.2 1 s_nosymbol ] slots_parameters [ slot 0
slot 1 source 0 -0.959919 -0.92343 0 0.2 0.2 0.2 1 s_nosymbol source
1 -0.651367 -0.925826 0 0.2 0.2 0.2 1 s_nosymbol source 2 -0.332656
-0.925288 0 0.2 0.2 0.2 1 s_nosymbol source 3 -0.0278968 -0.925312
0 0.2 0.2 0.2 1 s_nosymbol source 4 -0.956174 -0.612454 0 0.2 0.2 0.2
1 s_nosymbol source 5 -0.653919 -0.615734 0 0.2 0.2 0.2 1 s_nosymbol
source 6 -0.336455 -0.616033 0 0.2 0.2 0.2 1 s_nosymbol source 7 -0.958811
-0.296252 0 0.2 0.2 0.2 1 s_nosymbol source 8 -0.646583 -0.293997 0
0.2 0.2 0.2 1 s_nosymbol source 9 -0.959652 0.0177407 0 0.2 0.2 0.2
1 s_nosymbol source 10 0.604578 -0.926094 0 0.2 0.2 0.2 1 s_nosymbol
source 11 0.287528 -0.92486 0 0.2 0.2 0.2 1 s_nosymbol source 12 0.288137
-0.619598 0 0.2 0.2 0.2 1 s_nosymbol source 13 -0.0248165 -0.615229
0 0.2 0.2 0.2 1 s_nosymbol source 14 -0.0247579 -0.297755 0 0.2 0.2
0.2 1 s_nosymbol source 15 -0.333484 -0.296047 0 0.2 0.2 0.2 1 s_nosymbol
source 16 -0.333717 0.0178921 0 0.2 0.2 0.2 1 s_nosymbol source 17
-0.649327 0.0185297 0 0.2 0.2 0.2 1 s_nosymbol source 18 -0.644733
0.329328 0 0.2 0.2 0.2 1 s_nosymbol source 19 -0.96126 0.330302 0 0.2
0.2 0.2 1 s_nosymbol source 20 -0.959781 0.642626 0 0.2 0.2 0.2 1 s_nosymbol
source 21 -0.0228533 0.0189475 0 0.2 0.2 0.2 1 s_nosymbol source 22
0.292299 0.0173072 0 0.2 0.2 0.2 1 s_nosymbol source 23 0.289951 -0.297893
0 0.2 0.2 0.2 1 s_nosymbol source 24 0.606364 -0.299446 0 0.2 0.2 0.2
1 s_nosymbol source 25 0.598627 -0.616752 0 0.2 0.2 0.2 1 s_nosymbol
source 26 0.912892 -0.619482 0 0.2 0.2 0.2 1 s_nosymbol source 27 0.917046
-0.9243 0 0.2 0.2 0.2 1 s_nosymbol source 28 -0.0198444 0.332748 0
0.2 0.2 0.2 1 s_nosymbol source 29 -0.330639 0.333201 0 0.2 0.2 0.2
1 s_nosymbol source 30 -0.33616 0.637367 0 0.2 0.2 0.2 1 s_nosymbol
source 31 -0.649922 0.638805 0 0.2 0.2 0.2 1 s_nosymbol source 32 -0.650808
0.953782 0 0.2 0.2 0.2 1 s_nosymbol source 33 -0.961319 0.959968 0
0.2 0.2 0.2 1 s_nosymbol source 34 0.920137 -0.298094 0 0.2 0.2 0.2
1 s_nosymbol source 35 0.608263 0.0215593 0 0.2 0.2 0.2 1 s_nosymbol
source 36 0.919394 0.0233729 0 0.2 0.2 0.2 1 s_nosymbol source 37 0.294085
0.33073 0 0.2 0.2 0.2 1 s_nosymbol source 38 0.609092 0.334401 0 0.2
0.2 0.2 1 s_nosymbol source 39 -0.0183997 0.639444 0 0.2 0.2 0.2 1
s_nosymbol source 40 0.29334 0.640324 0 0.2 0.2 0.2 1 s_nosymbol source
41 -0.335966 0.95497 0 0.2 0.2 0.2 1 s_nosymbol source 42 -0.0199216
0.956802 0 0.2 0.2 0.2 1 s_nosymbol source 43 0.920275 0.954675 0 0.2
0.2 0.2 1 s_nosymbol source 44 0.602012 0.955719 0 0.2 0.2 0.2 1 s_nosymbol
source 45 0.290728 0.955771 0 0.2 0.2 0.2 1 s_nosymbol source 46 0.919261
0.641471 0 0.2 0.2 0.2 1 s_nosymbol source 47 0.606053 0.642496 0 0.2
0.2 0.2 1 s_nosymbol source 48 0.923365 0.335644 0 0.2 0.2 0.2 1 s_nosymbol
group 0 49 0 1 2 3 4 5 6 7 8 9 10 11 12 13 14 15 16 17 18 19 20 21
22 23 24 25 26 27 28 29 30 31 32 33 34 35 36 37 38 39 40 41 42 43 44
45 46 47 48 0 0.2 0.2 0.2 1 s_nosymbol slot 2 source 0 6.12323e-17
-1.49976e-32 0 0.2 0.2 0.2 1 s_nosymbol ];
#X obj 10 53 loadbang;
#X msg 87 77 size 400 400;
#X obj 355 6 declare -path abstractions;
#X msg 493 257 wet \$1;
#X obj 493 234 nbx 5 14 0 1 0 0 empty empty empty 0 -8 0 10 -262144
-1 -1 0 256;
#X obj 552 259 nbx 5 14 0 1 0 0 empty empty empty 0 -8 0 10 -262144
-1 -1 0 256;
#X msg 552 282 dry \$1;
#X obj 610 284 nbx 5 14 0 1 0 0 empty empty empty 0 -8 0 10 -262144
-1 -1 0 256;
#X msg 610 303 damp \$1;
#X obj 672 307 nbx 5 14 0 1 0 0 empty empty empty 0 -8 0 10 -262144
-1 -1 0 256;
#X msg 672 325 size \$1;
#X text 551 231 Wet / Dry (0 -1);
#X text 669 283 Damping value (0 - 1);
#X text 730 305 Size of the room (0 - 1);
#X obj 821 353 nbx 5 14 0 1 0 0 empty empty empty 0 -8 0 10 -262144
-1 -1 0 256;
#X msg 821 372 spread \$1;
#X obj 740 330 nbx 5 14 0 1 0 0 empty empty empty 0 -8 0 10 -262144
-1 -1 0 256;
#X msg 740 350 fspread \$1;
#X text 799 329 First spread (0 - 1);
#X text 881 351 Late spread (0 - 1);
#X text 490 210 Reverb;
#X obj 9 6 declare -path ../vendors/hoa/HoaLibrary/PureData/builds/
;
#X obj 519 6 declare -path dbm;
#X obj 476 153 hsl 128 15 0 599 0 0 empty empty empty -2 -8 0 10 -262144
-1 -1 7800 0;
#X msg 475 188 seek \$1;
#X obj 20 545 print AMB;
#X msg 185 52 bang;
#N canvas 812 22 450 300 load-preset 0;
#X obj 26 202 outlet;
#X msg 26 149 slot 1;
#X obj 26 122 loadbang;
#X obj 189 97 receive positions;
#X obj 234 167 list trim;
#X obj 234 145 list prepend;
#X msg 303 119 source;
#X obj 303 96 loadbang;
#X text 192 66 receive from gui (DBM);
#X text 305 168 <-- connect to outlet;
#X obj 27 47 inlet;
#X msg 109 155 slot store 1;
#X connect 1 0 0 0;
#X connect 2 0 1 0;
#X connect 3 0 5 0;
#X connect 5 0 4 0;
#X connect 6 0 5 1;
#X connect 7 0 6 0;
#X connect 10 0 1 0;
#X connect 11 0 0 0;
#X restore 185 75 pd load-preset;
#X obj 742 435 tgl 15 0 empty empty empty 17 7 0 10 -262144 -1 -1 1
1;
#X text 765 434 Quadraphonic;
#X msg 747 456 0;
#X msg 764 479 1;
#X msg 778 500 2;
#X msg 791 522 3;
#X obj 436 567 dac~ 1 2 3 4;
#X text 778 455 FL;
#X text 794 476 FR;
#X text 811 500 BL;
#X text 821 523 BR;
#N canvas 15 448 450 300 load-preset-2 0;
#X obj 26 202 outlet;
#X obj 27 47 inlet;
#X msg 26 149 slot 2;
#X msg 109 155 slot store 2;
#X connect 1 0 2 0;
#X connect 2 0 0 0;
#X connect 3 0 0 0;
#X restore 281 75 pd load-preset-2;
#X msg 283 50 bang;
#X msg 10 77 zoom 0.7;
#X obj 147 552 receive level;
#X obj 147 577 route 35;
#N canvas 655 294 450 300 indicator 0;
#X obj 98 41 inlet;
#X obj 98 77 moses 15;
#X obj 158 76 moses 20;
#X obj 220 75 moses 40;
#X obj 283 76 moses 60;
#X obj 341 77 moses 80;
#X obj 107 113 bng 15 250 50 0 empty empty empty 17 7 0 10 -262144
-1 -1;
#X obj 125 113 bng 15 250 50 0 empty empty empty 17 7 0 10 -262144
-1 -1;
#X obj 142 113 bng 15 250 50 0 empty empty empty 17 7 0 10 -262144
-1 -1;
#X obj 159 113 bng 15 250 50 0 empty empty empty 17 7 0 10 -262144
-1 -1;
#X obj 176 113 bng 15 250 50 0 empty empty empty 17 7 0 10 -262144
-1 -1;
#X floatatom 44 75 8 0 0 0 - - -;
#X connect 0 0 1 0;
#X connect 0 0 11 0;
#X connect 1 1 2 0;
#X connect 1 1 6 0;
#X connect 2 1 3 0;
#X connect 2 1 7 0;
#X connect 3 1 4 0;
#X connect 3 1 8 0;
#X connect 4 1 5 0;
#X connect 4 1 9 0;
#X connect 5 1 10 0;
#X coords 0 -1 1 1 100 30 1 100 100;
#X restore 176 623 pd indicator;
#X connect 0 0 6 1;
#X connect 1 0 6 1;
#X connect 2 0 6 1;
#X connect 6 0 43 0;
#X connect 6 1 43 1;
#X connect 6 2 43 2;
#X connect 6 3 43 3;
#X connect 8 0 6 0;
#X connect 8 0 34 0;
#X connect 9 0 10 0;
#X connect 9 0 50 0;
#X connect 10 0 8 0;
#X connect 12 0 6 2;
#X connect 13 0 12 0;
#X connect 14 0 15 0;
#X connect 15 0 6 2;
#X connect 16 0 17 0;
#X connect 17 0 6 2;
#X connect 18 0 19 0;
#X connect 19 0 6 2;
#X connect 23 0 24 0;
#X connect 24 0 6 2;
#X connect 25 0 26 0;
#X connect 26 0 6 2;
#X connect 32 0 33 0;
#X connect 33 0 6 1;
#X connect 35 0 36 0;
#X connect 36 0 8 0;
#X connect 37 0 6 3;
#X connect 39 0 6 4;
#X connect 40 0 6 4;
#X connect 41 0 6 4;
#X connect 42 0 6 4;
#X connect 48 0 8 0;
#X connect 49 0 48 0;
#X connect 50 0 8 0;
#X connect 51 0 52 0;
#X connect 52 0 53 0;
